<svg width="502" height="798" viewBox="0 0 502 798" fill="none" xmlns="http://www.w3.org/2000/svg">
<rect x="351" width="69" height="73" fill="white"/>
<path d="M54.4343 218.298L3.81699 191.607C2.98487 191.17 2.24738 190.572 1.64683 189.848C1.04628 189.125 0.594479 188.29 0.317337 187.391C0.0401951 186.493 -0.0568325 185.548 0.031823 184.612C0.120479 183.676 0.393066 182.767 0.83396 181.936L37.8235 111.819C38.7144 110.141 40.2334 108.883 42.0485 108.322C43.8636 107.76 45.8273 107.939 47.5106 108.821L79.6802 125.777L91 164.509L64.1213 215.299C63.2304 216.977 61.7115 218.235 59.8964 218.797C58.0813 219.359 56.1176 219.179 54.4343 218.298V218.298Z" fill="#029491"/>
<g opacity="0.3">
<path d="M79.6803 125.776L69.2554 145.496C68.4342 147.06 68.2656 148.886 68.7862 150.575C69.3069 152.263 70.4746 153.677 72.0343 154.507L91.0001 164.508L79.6803 125.776Z" fill="white"/>
</g>
<g opacity="0.2">
<path d="M68.5477 147.364C67.7699 148.864 67.5281 150.585 67.8622 152.241C68.1962 153.897 69.0862 155.389 70.3846 156.47L70.9341 156.926C73.1792 158.684 87.9374 170.192 88.2043 169.815C88.4712 169.439 90.9989 164.509 90.9989 164.509L72.0331 154.508C72.0331 154.508 67.3231 151.839 68.5477 147.364Z" fill="black"/>
</g>
<path d="M65.3769 142.45C65.2356 142.702 59.8975 140.142 53.4291 136.72C46.9606 133.297 41.8266 130.345 41.9993 130.079C42.1721 129.812 47.4944 132.387 53.9629 135.809C60.4313 139.232 65.5496 142.199 65.3769 142.45Z" fill="#FAFAFA"/>
<path d="M74.6097 161.652C74.4841 161.903 65.7391 157.554 55.0944 151.933C44.4497 146.312 35.9402 141.493 36.0658 141.241C36.1914 140.99 44.9364 145.339 55.5811 150.96C66.2258 156.58 74.751 161.338 74.6097 161.652Z" fill="#FAFAFA"/>
<path d="M73.1646 172.736C73.039 172.987 63.5247 168.23 51.9223 162.091C40.3199 155.953 31.0097 150.803 31.151 150.552C31.2923 150.301 40.8066 155.058 52.409 161.181C64.0114 167.304 73.3059 172.485 73.1646 172.736Z" fill="#FAFAFA"/>
<path d="M68.5348 181.512C68.3935 181.763 58.8792 177.006 47.2767 170.883C35.6743 164.76 26.3798 159.579 26.5211 159.328C26.6624 159.077 36.161 163.834 47.7634 169.957C59.3659 176.08 68.6918 181.261 68.5348 181.512Z" fill="#FAFAFA"/>
<path d="M63.886 190.304C63.7604 190.555 54.2461 185.798 42.6437 179.659C31.0413 173.521 21.7468 168.371 21.8724 168.12C21.998 167.869 31.528 172.641 43.1304 178.749C54.7328 184.856 63.9802 190.053 63.886 190.304Z" fill="#FAFAFA"/>
<path d="M59.2711 199.08C59.1298 199.332 49.6155 194.574 38.0288 188.451C26.442 182.328 17.1161 177.147 17.2574 176.896C17.3987 176.645 26.8973 181.402 38.4998 187.525C50.1022 193.648 59.3967 198.829 59.2711 199.08Z" fill="#FAFAFA"/>
<path d="M260.84 186.24C259.666 186.072 258.607 185.444 257.895 184.495C257.183 183.547 256.878 182.354 257.045 181.18L262.579 142.675C262.753 141.707 263.303 140.847 264.11 140.284C264.916 139.721 265.913 139.501 266.882 139.671L270.496 140.196C271.203 140.305 271.926 140.216 272.585 139.94C273.244 139.663 273.814 139.21 274.232 138.63L275.239 137.158C275.656 136.577 276.226 136.124 276.885 135.847C277.544 135.571 278.267 135.482 278.974 135.591L296.187 138.062C296.834 138.148 297.449 138.395 297.976 138.782C298.502 139.169 298.923 139.681 299.199 140.273L299.853 141.736C300.128 142.327 300.548 142.839 301.072 143.226C301.597 143.612 302.211 143.861 302.857 143.948L324.76 147.098C325.736 147.206 326.63 147.698 327.245 148.464C327.86 149.231 328.145 150.21 328.039 151.186L322.376 190.561C322.293 191.142 322.096 191.701 321.796 192.206C321.497 192.71 321.101 193.151 320.631 193.503C320.161 193.855 319.626 194.11 319.057 194.255C318.488 194.4 317.896 194.431 317.315 194.347L260.84 186.24Z" fill="#455A64"/>
<g opacity="0.3">
<path d="M260.84 186.24C259.666 186.072 258.607 185.444 257.895 184.495C257.183 183.547 256.878 182.354 257.045 181.18L262.579 142.675C262.753 141.707 263.303 140.847 264.11 140.284C264.916 139.721 265.913 139.501 266.882 139.671L270.496 140.196C271.203 140.305 271.926 140.216 272.585 139.94C273.244 139.663 273.814 139.21 274.232 138.63L275.239 137.158C275.656 136.577 276.226 136.124 276.885 135.847C277.544 135.571 278.267 135.482 278.974 135.591L296.187 138.062C296.834 138.148 297.449 138.395 297.976 138.782C298.502 139.169 298.923 139.681 299.199 140.273L299.853 141.736C300.128 142.327 300.548 142.839 301.072 143.226C301.597 143.612 302.211 143.861 302.857 143.948L324.76 147.098C325.736 147.206 326.63 147.698 327.245 148.464C327.86 149.231 328.145 150.21 328.039 151.186L322.376 190.561C322.293 191.142 322.096 191.701 321.796 192.206C321.497 192.71 321.101 193.151 320.631 193.503C320.161 193.855 319.626 194.11 319.057 194.255C318.488 194.4 317.896 194.431 317.315 194.347L260.84 186.24Z" fill="black"/>
</g>
<path d="M300.662 143.647L286.736 141.607L285.824 139.103C285.511 138.285 284.982 137.567 284.294 137.025C283.607 136.482 282.785 136.136 281.917 136.022L268.301 134.068C267.185 133.87 266.035 134.12 265.102 134.764C264.169 135.409 263.528 136.396 263.318 137.511L263.095 139.103L257.07 180.904C256.932 182.188 257.307 183.475 258.113 184.484C258.919 185.493 260.091 186.143 261.373 186.292L316.721 194.313C317.994 194.536 319.304 194.246 320.364 193.505C321.423 192.765 322.147 191.635 322.375 190.363L328.056 150.877C328.118 150.458 328.096 150.031 327.993 149.62C327.889 149.209 327.705 148.823 327.451 148.484C327.198 148.145 326.879 147.859 326.515 147.644C326.15 147.428 325.747 147.286 325.327 147.227L300.662 143.647Z" fill="#455A64"/>
<path d="M311.846 160.826L278.921 156.093L276.93 169.944L309.855 174.677L311.846 160.826Z" fill="white"/>
<path d="M305.878 166.213C305.878 166.334 300.782 165.705 294.534 164.81C288.286 163.915 283.234 163.089 283.26 162.96C283.286 162.831 288.355 163.468 294.603 164.363C300.851 165.258 305.895 166.093 305.878 166.213Z" fill="#263238"/>
<path d="M305.456 169.165C305.456 169.286 300.361 168.657 294.113 167.762C287.865 166.867 282.813 166.041 282.83 165.912C282.847 165.783 287.925 166.42 294.173 167.315C300.422 168.21 305.474 169.045 305.456 169.165Z" fill="#263238"/>
<path d="M360.753 169.131C360.391 169.268 360.005 169.331 359.618 169.319C359.231 169.306 358.851 169.218 358.498 169.058C358.146 168.898 357.828 168.67 357.564 168.387C357.299 168.104 357.093 167.772 356.958 167.41L347.835 143.57C347.73 143.268 347.686 142.949 347.706 142.63C347.725 142.311 347.807 142 347.947 141.713C348.086 141.425 348.282 141.169 348.521 140.957C348.76 140.746 349.039 140.584 349.341 140.48L351.578 139.62C352.016 139.453 352.401 139.17 352.69 138.802C352.98 138.433 353.164 137.993 353.222 137.528L353.326 136.366C353.378 135.9 353.56 135.457 353.851 135.087C354.141 134.718 354.528 134.437 354.969 134.275L365.607 130.196C366.007 130.041 366.439 129.988 366.864 130.042C367.289 130.097 367.694 130.256 368.043 130.505L368.903 131.134C369.251 131.382 369.654 131.54 370.078 131.594C370.501 131.648 370.932 131.597 371.33 131.443L384.894 126.28C385.49 126.03 386.16 126.027 386.759 126.271C387.357 126.514 387.834 126.985 388.087 127.579L397.416 151.961C397.554 152.323 397.619 152.709 397.607 153.096C397.595 153.484 397.506 153.865 397.346 154.217C397.186 154.57 396.958 154.888 396.675 155.152C396.391 155.416 396.058 155.622 395.695 155.757L360.753 169.131Z" fill="#029491"/>
<g opacity="0.3">
<path d="M360.752 169.131C360.39 169.267 360.004 169.331 359.617 169.319C359.23 169.306 358.85 169.217 358.497 169.057C358.145 168.898 357.827 168.67 357.563 168.387C357.298 168.104 357.092 167.772 356.957 167.409L347.834 143.57C347.729 143.268 347.685 142.949 347.705 142.63C347.724 142.311 347.806 141.999 347.946 141.712C348.086 141.425 348.281 141.169 348.52 140.957C348.759 140.746 349.038 140.584 349.34 140.48L351.578 139.619C352.016 139.453 352.4 139.17 352.689 138.802C352.979 138.433 353.163 137.993 353.221 137.528L353.325 136.366C353.377 135.899 353.559 135.456 353.85 135.087C354.14 134.718 354.527 134.436 354.968 134.275L365.606 130.195C366.006 130.041 366.438 129.988 366.863 130.042C367.288 130.096 367.693 130.255 368.042 130.505L368.902 131.133C369.25 131.382 369.653 131.54 370.077 131.594C370.5 131.648 370.931 131.596 371.329 131.443L384.893 126.279C385.489 126.03 386.159 126.027 386.758 126.27C387.356 126.514 387.833 126.984 388.086 127.579L397.415 151.961C397.553 152.323 397.618 152.709 397.606 153.096C397.594 153.483 397.505 153.864 397.345 154.217C397.185 154.57 396.957 154.888 396.674 155.152C396.39 155.416 396.057 155.622 395.694 155.756L360.752 169.131Z" fill="black"/>
</g>
<path d="M369.979 131.977L361.372 135.264L360.047 134.12C359.608 133.749 359.077 133.505 358.509 133.414C357.942 133.323 357.361 133.389 356.828 133.603L348.394 136.831C347.691 137.08 347.116 137.598 346.793 138.27C346.471 138.943 346.427 139.715 346.673 140.42L347.051 141.401L356.957 167.289C357.29 168.071 357.917 168.69 358.704 169.013C359.49 169.335 360.372 169.334 361.157 169.01L395.419 155.894C396.224 155.616 396.885 155.031 397.258 154.266C397.631 153.501 397.685 152.619 397.408 151.815L388.044 127.355C387.842 126.831 387.44 126.409 386.927 126.182C386.413 125.954 385.831 125.94 385.307 126.142L369.979 131.977Z" fill="#029491"/>
<path d="M381.878 138.235L361.487 146.042L364.771 154.618L385.162 146.811L381.878 138.235Z" fill="white"/>
<path d="M380.176 143.251C377.928 144.356 375.614 145.321 373.248 146.143C370.94 147.11 368.574 147.935 366.165 148.613C368.403 147.519 370.702 146.554 373.05 145.722C375.375 144.758 377.754 143.933 380.176 143.251V143.251Z" fill="#263238"/>
<path d="M380.875 145.084C378.637 146.177 376.338 147.14 373.99 147.968C371.657 148.928 369.269 149.747 366.838 150.42C369.086 149.316 371.4 148.351 373.766 147.529C376.084 146.571 378.458 145.755 380.875 145.084V145.084Z" fill="#263238"/>
<path d="M458.556 445.723H158.824V670.945H458.556V445.723Z" fill="white"/>
<path d="M458.556 670.945C458.556 670.945 458.556 670.584 458.556 669.891C458.556 669.199 458.556 668.165 458.556 666.811C458.556 664.101 458.556 660.087 458.506 654.839C458.506 644.363 458.446 628.969 458.395 609.321C458.345 570.085 458.265 513.829 458.175 445.753L458.606 446.184L158.905 446.274L159.427 445.753C159.427 526.734 159.427 603.41 159.427 670.975L158.955 670.503L375.287 670.734L436.73 670.865L453.037 670.925H457.241H458.315H457.261H453.117L436.901 670.985L375.568 671.116L158.925 671.346H158.353V670.875C158.353 603.31 158.353 526.634 158.303 445.652V445.13H158.855L458.556 445.231H458.997V445.652C458.907 513.889 458.837 570.225 458.777 609.522C458.727 629.13 458.696 644.483 458.666 654.939C458.666 660.147 458.666 664.141 458.666 666.831C458.666 668.165 458.666 669.179 458.666 669.841C458.666 670.503 458.556 670.945 458.556 670.945Z" fill="#263238"/>
<path d="M457.051 473.308C456.801 473.341 456.55 473.357 456.298 473.359H454.07L445.521 473.449C438.105 473.509 427.358 473.539 414.091 473.529C387.539 473.529 350.872 473.339 310.371 473.007L206.651 472.174L175.211 471.924L166.672 471.823L164.444 471.763C164.194 471.792 163.941 471.792 163.691 471.763C163.94 471.718 164.192 471.701 164.444 471.713H166.672L175.211 471.623C182.637 471.562 193.375 471.532 206.651 471.532C233.193 471.532 269.87 471.733 310.381 472.064L414.091 472.897L445.531 473.138L454.07 473.248H456.298C456.55 473.242 456.803 473.262 457.051 473.308Z" fill="#263238"/>
<path d="M178.402 457.122C178.404 457.821 178.199 458.506 177.811 459.088C177.424 459.67 176.872 460.125 176.227 460.393C175.581 460.662 174.87 460.733 174.184 460.597C173.497 460.461 172.867 460.124 172.372 459.63C171.878 459.135 171.541 458.505 171.405 457.819C171.269 457.132 171.34 456.421 171.609 455.776C171.877 455.13 172.332 454.578 172.914 454.191C173.496 453.803 174.181 453.598 174.88 453.6C175.814 453.602 176.708 453.974 177.368 454.634C178.028 455.294 178.4 456.189 178.402 457.122Z" fill="#263238"/>
<path d="M192.522 457.122C192.524 457.821 192.318 458.505 191.931 459.087C191.544 459.669 190.993 460.123 190.348 460.392C189.703 460.661 188.992 460.733 188.306 460.597C187.62 460.462 186.99 460.127 186.495 459.633C186 459.14 185.663 458.51 185.526 457.825C185.389 457.139 185.458 456.428 185.725 455.782C185.992 455.136 186.445 454.584 187.026 454.196C187.607 453.807 188.29 453.6 188.989 453.6C189.924 453.6 190.821 453.97 191.483 454.631C192.146 455.291 192.519 456.187 192.522 457.122V457.122Z" fill="#263238"/>
<path d="M203.108 460.694C205.059 460.694 206.641 459.113 206.641 457.162C206.641 455.211 205.059 453.63 203.108 453.63C201.158 453.63 199.576 455.211 199.576 457.162C199.576 459.113 201.158 460.694 203.108 460.694Z" fill="#263238"/>
<path d="M272.659 604.042H211.065V650.153H272.659V604.042Z" fill="#EBEBEB"/>
<path d="M340.306 604.042H278.712V650.153H340.306V604.042Z" fill="#EBEBEB"/>
<path d="M419.138 604.042H357.544V650.153H419.138V604.042Z" fill="#EBEBEB"/>
<path d="M319.115 583.167C290.123 563.899 293.502 523.723 300.994 506.566L323.597 502.627C315.97 512.028 315.166 546.115 324.784 553.473C334.401 560.832 352.289 560.741 359.365 550.91C364.928 543.193 365.704 525.316 375.102 523.878C371.164 503.921 385.301 482.131 405.128 477.604C406.204 471.974 408.541 466.661 411.963 462.063C415.385 457.465 419.804 453.701 424.888 451.054C429.972 448.407 435.589 446.945 441.318 446.778C447.047 446.611 452.74 447.744 457.969 450.09L457.535 514.774C457.535 514.774 463.696 545.466 444.541 552.626C437.998 555.071 431.511 553.646 425.993 551.012C425.571 551.993 424.966 552.886 424.21 553.641C421.238 556.549 416.597 557.308 412.51 556.436C411.983 556.323 411.493 556.186 410.956 556.009C406.65 569.243 394.304 583.469 382.876 589.418C366.344 598.077 334.711 593.525 319.115 583.167Z" fill="#F5F5F5"/>
<path d="M378.92 530.719C378.92 530.719 378.892 530.609 378.794 530.4L378.365 529.507C378.168 529.111 377.931 528.622 377.698 528.03C377.464 527.438 377.151 526.764 376.904 525.978C375.338 521.552 374.652 516.862 374.885 512.172C375.029 508.957 375.621 505.778 376.644 502.726C377.801 499.201 379.55 495.899 381.817 492.962C387.044 486.183 394.527 481.503 402.909 479.768C404.11 479.509 405.329 479.377 406.459 479.239L406.68 479.219L406.691 479.004C407.076 474.071 408.496 469.274 410.858 464.927C413.22 460.579 416.471 456.778 420.4 453.77C421.769 452.768 423.195 451.847 424.671 451.011C427.311 449.487 430.13 448.297 433.063 447.466C437.295 446.232 441.749 445.96 446.1 446.671C446.875 446.778 447.539 446.936 448.124 447.071C448.617 447.175 449.105 447.303 449.586 447.456L450.486 447.707C450.586 447.745 450.69 447.768 450.797 447.773C450.797 447.773 450.702 447.717 450.503 447.659L449.62 447.359C449.143 447.185 448.656 447.041 448.16 446.93C447.578 446.773 446.91 446.601 446.11 446.455C441.723 445.664 437.213 445.882 432.922 447.091C429.952 447.905 427.097 449.091 424.424 450.62C422.923 451.453 421.476 452.378 420.089 453.389C418.628 454.487 417.255 455.7 415.984 457.014C410.242 462.946 406.747 470.692 406.098 478.922L406.335 478.678C401.436 479.162 396.69 480.651 392.392 483.052C388.095 485.453 384.339 488.715 381.358 492.633C379.069 495.613 377.307 498.964 376.149 502.539C375.126 505.644 374.546 508.878 374.423 512.145C374.216 516.874 374.962 521.596 376.617 526.03C376.862 526.727 377.144 527.41 377.461 528.077C377.669 528.579 377.905 529.068 378.169 529.543C378.373 529.908 378.529 530.197 378.644 530.417C378.727 530.525 378.82 530.626 378.92 530.719V530.719Z" fill="#263238"/>
<path d="M367.174 536.34C367.273 536.328 367.182 535.436 367.431 534.045C367.582 533.237 367.82 532.448 368.142 531.692C368.547 530.77 369.061 529.899 369.671 529.099C370.309 528.316 371.037 527.611 371.841 526.999C372.502 526.509 373.216 526.094 373.968 525.761C375.267 525.198 376.152 525.08 376.136 524.989C376.12 524.897 375.909 524.959 375.501 524.999C374.929 525.072 374.368 525.215 373.83 525.423C373.022 525.715 372.258 526.115 371.557 526.611C369.822 527.835 368.477 529.534 367.683 531.503C367.362 532.302 367.15 533.141 367.052 533.996C366.972 534.569 366.967 535.149 367.036 535.723C367.098 536.132 367.146 536.347 367.174 536.34Z" fill="#263238"/>
<path d="M377.383 560.657C377.383 560.657 377.431 560.022 377.648 558.903C377.957 557.312 378.58 555.798 379.48 554.451C380.82 552.416 382.779 550.867 385.067 550.032C387.919 548.999 391.059 549.095 393.843 550.301L394.231 550.472L394.206 550.061C394.156 548.69 394.261 547.318 394.52 545.971C395.186 542.503 396.815 539.294 399.222 536.71C401.22 534.628 403.675 533.041 406.393 532.073C408.227 531.419 410.149 531.044 412.093 530.96C413.473 530.911 414.242 530.991 414.236 530.941C414.057 530.886 413.872 530.855 413.685 530.849C413.154 530.784 412.62 530.753 412.085 530.757C409.621 530.769 407.184 531.273 404.916 532.239C402.649 533.204 400.597 534.612 398.88 536.38C397.143 538.201 395.788 540.352 394.897 542.706C394.006 545.06 393.596 547.569 393.691 550.084L394.059 549.835C391.149 548.567 387.861 548.479 384.886 549.588C382.522 550.479 380.514 552.117 379.166 554.253C378.271 555.649 377.68 557.218 377.431 558.857C377.365 559.297 377.332 559.741 377.334 560.186C377.328 560.345 377.344 560.503 377.383 560.657V560.657Z" fill="#263238"/>
<path d="M304.466 568.022C304.579 568.269 304.711 568.507 304.862 568.733C305.146 569.18 305.549 569.86 306.117 570.695C307.756 573.035 309.608 575.218 311.649 577.218C314.686 580.161 318.055 582.742 321.689 584.907C323.834 586.192 326.052 587.352 328.331 588.38C330.774 589.496 333.278 590.474 335.83 591.309C344.791 594.287 354.196 595.71 363.637 595.516C366.493 595.46 369.339 595.15 372.14 594.587C373.123 594.363 373.887 594.173 374.393 594.005C374.656 593.938 374.913 593.848 375.159 593.734C374.889 593.771 374.622 593.828 374.36 593.904C373.846 594.044 373.085 594.189 372.095 594.386C369.299 594.87 366.468 595.125 363.631 595.151C354.249 595.236 344.918 593.773 336.012 590.822C333.478 589.996 330.991 589.028 328.565 587.923C326.296 586.913 324.087 585.77 321.951 584.502C318.324 582.37 314.949 579.837 311.888 576.951C309.857 574.992 307.992 572.868 306.312 570.601C305.716 569.795 305.302 569.132 305.006 568.666C304.844 568.437 304.663 568.221 304.466 568.022V568.022Z" fill="#263238"/>
<path d="M319.711 544.787C319.781 545.241 319.912 545.683 320.102 546.101C320.511 547.252 321.026 548.363 321.64 549.419C323.655 552.952 326.611 555.856 330.179 557.807C333.747 559.758 337.787 560.68 341.849 560.469C343.065 560.416 344.273 560.251 345.459 559.976C345.903 559.894 346.335 559.758 346.747 559.571C345.122 559.836 343.483 560.01 341.839 560.091C337.861 560.198 333.926 559.249 330.435 557.34C326.944 555.432 324.021 552.632 321.964 549.226C321.119 547.796 320.366 546.314 319.711 544.787V544.787Z" fill="#263238"/>
<path d="M315.198 499.424C317.277 503.635 318.5 508.216 318.797 512.903C318.834 513.57 318.661 514.231 318.301 514.794C317.942 515.356 317.414 515.792 316.794 516.038C316.173 516.284 315.491 516.329 314.843 516.166C314.196 516.003 313.616 515.64 313.186 515.129L313.117 515.088C313.813 520.788 314.13 526.528 314.067 532.27C314.065 533.078 313.813 533.865 313.347 534.524C312.88 535.183 312.221 535.681 311.46 535.951C310.699 536.221 309.873 536.248 309.095 536.03C308.318 535.812 307.627 535.358 307.117 534.732C297.891 523.504 293.05 509.31 293.494 494.785L315.198 499.424Z" fill="#029491"/>
<g opacity="0.3">
<path d="M312.678 504.648C313.073 505.346 313.324 506.116 313.417 506.912C313.459 507.31 313.385 507.711 313.204 508.067C313.023 508.424 312.742 508.72 312.396 508.92C311.308 509.443 309.924 508.569 308.853 509.161C307.782 509.753 307.858 511.382 308.142 512.621L309.058 516.539C309.284 517.5 309.426 518.701 308.608 519.279C307.79 519.857 306.49 519.277 305.685 518.546C303.82 516.824 302.4 514.676 301.547 512.284C300.695 509.893 300.435 507.33 300.791 504.816L312.678 504.648Z" fill="black"/>
</g>
<path d="M313.651 550.068C314.425 550.563 314.974 551.341 315.179 552.235C315.385 553.13 315.231 554.07 314.751 554.852C314.271 555.634 313.502 556.197 312.611 556.418C311.721 556.64 310.778 556.503 309.988 556.037C309.197 555.571 308.621 554.813 308.383 553.926C308.146 553.039 308.266 552.095 308.718 551.296C309.17 550.497 309.917 549.907 310.8 549.654C311.682 549.4 312.628 549.504 313.435 549.941" fill="#029491"/>
<path d="M303.036 329.64C308.268 329.439 318.385 342.59 328.158 364.822C333.937 377.929 337.584 391.876 338.96 406.135L342.63 503.28L317.039 504.247L302.191 504.814L276.6 505.78L273.272 417.619C272.94 408.995 273.436 400.359 274.753 391.829C276.033 383.28 278 374.849 280.634 366.617C288.165 343.624 297.809 329.832 303.036 329.64Z" fill="#F5F5F5"/>
<path d="M274.321 444.868L274.082 445.076C267.153 451.084 261.662 458.573 258.016 466.989C254.369 475.405 252.661 484.532 253.016 493.697L253.458 505.338L275.965 488.4L274.321 444.868Z" fill="#029491"/>
<path d="M274.321 444.867L274.328 445.093L274.343 445.719L274.439 448.105L274.702 457.125L275.794 488.392L275.865 488.271L255.387 503.725L253.355 505.196L253.614 505.348L253.346 498.492C253.277 496.238 253.143 494.016 253.153 491.844C253.121 487.664 253.511 483.492 254.32 479.392C255.043 475.685 256.121 472.057 257.538 468.557C258.157 466.895 258.936 465.374 259.62 463.878C260.304 462.383 261.095 461.02 261.911 459.754C264.343 455.691 267.242 451.927 270.55 448.538C271.688 447.299 272.69 446.469 273.305 445.841L274.282 444.914L274.015 445.13L273.278 445.708C272.634 446.307 271.614 447.127 270.459 448.357C267.097 451.728 264.155 455.492 261.695 459.568C260.87 460.829 260.125 462.231 259.376 463.7C258.627 465.168 257.899 466.72 257.266 468.385C255.83 471.901 254.735 475.546 253.995 479.27C253.176 483.392 252.776 487.586 252.802 491.788C252.789 493.982 252.92 496.191 252.998 498.45L253.274 505.334L253.287 505.668L253.557 505.466L255.588 503.996L276.098 488.548L276.139 488.479L276.174 488.419L274.885 457.012L274.506 448.052L274.41 445.665C274.396 445.412 274.396 445.214 274.379 445.065L274.321 444.867Z" fill="#263238"/>
<path d="M340.355 442.381C340.355 442.381 340.485 442.458 340.623 442.539C347.883 447.934 353.838 454.891 358.049 462.895C362.26 470.9 364.62 479.748 364.954 488.787L365.392 500.274L341.982 485.31L340.355 442.381Z" fill="#029491"/>
<path d="M340.355 442.381L340.351 442.565L340.373 443.161L340.426 445.522L340.723 454.364L341.799 485.342L341.807 485.428L341.867 485.464C348.436 489.674 355.639 494.292 363.19 499.128C363.916 499.556 364.612 500.036 365.262 500.454L365.547 500.622L365.535 500.289L365.282 493.524C365.184 491.299 365.146 489.11 364.971 486.957C364.687 482.819 363.98 478.722 362.861 474.728C361.861 471.125 360.513 467.627 358.837 464.284C358.102 462.685 357.207 461.238 356.415 459.816C355.623 458.394 354.735 457.113 353.812 455.952C351.106 452.128 347.952 448.642 344.417 445.568C343.185 444.457 342.129 443.718 341.447 443.177C341.109 442.919 340.853 442.722 340.644 442.563C340.434 442.405 340.358 442.395 340.358 442.395C340.523 442.492 340.793 442.744 341.38 443.23C341.967 443.716 343.098 444.546 344.311 445.669C347.82 448.764 350.956 452.258 353.655 456.08C354.548 457.271 355.333 458.608 356.24 459.934C357.147 461.261 357.896 462.797 358.628 464.382C360.282 467.718 361.612 471.205 362.6 474.796C363.701 478.77 364.397 482.845 364.679 486.959C364.842 489.094 364.874 491.291 364.972 493.516L365.225 500.281L365.492 500.124C364.826 499.731 364.126 499.26 363.429 498.803C355.872 493.975 348.656 489.361 342.082 485.159L342.158 485.286L340.906 454.448L340.526 445.569L340.43 443.183L340.396 442.569L340.355 442.381Z" fill="#263238"/>
<path d="M303.035 329.641C307.074 329.331 314.058 337.304 321.521 351.162L284.784 355.051C291.151 340.435 297.858 330.026 303.035 329.641Z" fill="#029491"/>
<path d="M276.692 489.934C276.703 490.034 291.34 489.646 309.388 489.067C327.435 488.488 342.078 487.952 342.067 487.852C342.056 487.753 327.477 488.14 309.38 488.724C291.283 489.309 276.689 489.839 276.692 489.934Z" fill="#263238"/>
<path d="M277.105 492.869C277.064 492.938 291.745 492.576 309.792 491.997C327.839 491.418 342.483 490.882 342.472 490.782C342.461 490.683 327.84 491.08 309.784 491.655C291.729 492.229 277.094 492.769 277.105 492.869Z" fill="#263238"/>
<path d="M277.159 495.976C277.171 496.076 291.808 495.688 309.856 495.109C327.903 494.53 342.546 493.994 342.535 493.894C342.524 493.795 327.904 494.192 309.848 494.767C291.792 495.341 277.157 495.881 277.159 495.976Z" fill="#263238"/>
<path d="M277.224 499.09C277.235 499.189 291.878 498.793 309.92 498.223C327.962 497.652 342.623 497.068 342.579 497.043C342.536 497.017 327.948 497.341 309.892 497.915C291.836 498.489 277.227 498.986 277.224 499.09Z" fill="#263238"/>
<path d="M277.267 502.179C277.226 502.249 291.907 501.887 309.963 501.312C328.019 500.738 342.645 500.192 342.642 500.098C342.64 500.003 328.011 500.396 309.955 500.97C291.899 501.544 277.308 502.11 277.267 502.179Z" fill="#263238"/>
<path d="M307.219 443.7C307.219 443.7 307.142 443.83 307.16 444.155C307.178 444.48 307.14 444.9 307.128 445.475C307.119 446.635 307.163 448.28 307.229 450.322C307.347 454.411 307.582 460.059 307.88 466.292C308.178 472.525 308.476 478.164 308.711 482.251L309.016 487.09L309.119 488.397C309.116 488.551 309.136 488.703 309.177 488.851C309.191 488.697 309.193 488.542 309.182 488.388L309.152 487.077L308.956 482.232L308.203 466.296L307.453 450.338L307.226 445.545C307.211 444.977 307.175 444.525 307.187 444.229L307.219 443.7Z" fill="#263238"/>
<path d="M274.322 444.867C274.333 444.967 288.994 444.5 307.062 443.828C325.129 443.156 339.796 442.541 339.793 442.446C339.791 442.351 325.13 442.818 307.054 443.485C288.978 444.153 274.32 444.773 274.322 444.867Z" fill="#263238"/>
<path d="M303.129 475.931C303.016 475.808 302.868 475.721 302.705 475.681C302.274 475.507 301.795 475.488 301.351 475.628C301.011 475.721 300.701 475.902 300.453 476.153C300.205 476.403 300.028 476.715 299.938 477.056C299.807 477.481 299.813 477.937 299.954 478.359C300.096 478.781 300.366 479.148 300.727 479.408C301.088 479.668 301.521 479.809 301.966 479.81C302.411 479.811 302.846 479.673 303.208 479.414C303.504 479.222 303.745 478.956 303.906 478.642C304.066 478.327 304.141 477.976 304.123 477.624C304.121 477.171 303.971 476.731 303.697 476.371C303.489 476.131 303.314 476.052 303.304 476.069C303.294 476.087 303.425 476.199 303.587 476.458C303.817 476.811 303.935 477.225 303.924 477.646C303.92 477.951 303.837 478.249 303.682 478.511C303.527 478.773 303.307 478.991 303.042 479.142C302.732 479.346 302.368 479.451 301.997 479.443C301.626 479.434 301.266 479.314 300.966 479.096C300.665 478.878 300.438 478.574 300.315 478.225C300.191 477.875 300.177 477.495 300.275 477.137C300.343 476.843 300.486 476.571 300.691 476.349C300.895 476.126 301.154 475.961 301.442 475.869C301.829 475.723 302.25 475.696 302.653 475.79C302.967 475.87 303.114 475.957 303.129 475.931Z" fill="#263238"/>
<path d="M302.072 457.172C302.072 457.172 301.961 457.025 301.649 456.922C301.217 456.748 300.738 456.729 300.294 456.869C299.954 456.962 299.644 457.143 299.396 457.394C299.148 457.644 298.971 457.956 298.882 458.297C298.75 458.722 298.756 459.178 298.897 459.6C299.039 460.022 299.309 460.389 299.67 460.649C300.031 460.909 300.464 461.05 300.909 461.051C301.355 461.052 301.789 460.914 302.151 460.655C302.447 460.463 302.688 460.197 302.849 459.883C303.01 459.568 303.085 459.217 303.066 458.865C303.058 458.415 302.907 457.979 302.635 457.62C302.534 457.486 302.4 457.379 302.247 457.31C302.247 457.31 302.363 457.449 302.526 457.707C302.755 458.06 302.873 458.475 302.862 458.896C302.859 459.199 302.777 459.495 302.623 459.756C302.469 460.017 302.249 460.233 301.985 460.383C301.676 460.587 301.312 460.693 300.941 460.686C300.571 460.679 300.211 460.559 299.91 460.342C299.609 460.126 299.381 459.823 299.257 459.473C299.132 459.124 299.117 458.745 299.213 458.387C299.282 458.091 299.426 457.818 299.631 457.594C299.837 457.371 300.096 457.204 300.385 457.11C300.772 456.97 301.191 456.946 301.591 457.04C301.91 457.111 302.057 457.198 302.072 457.172Z" fill="#263238"/>
<path d="M311.096 427.557C310.978 427.44 310.832 427.354 310.672 427.308C310.239 427.141 309.763 427.122 309.318 427.254C308.966 427.347 308.645 427.533 308.391 427.794C308.137 428.055 307.959 428.379 307.875 428.734C307.745 429.159 307.752 429.615 307.894 430.036C308.037 430.457 308.308 430.823 308.669 431.083C309.031 431.342 309.464 431.482 309.909 431.482C310.354 431.482 310.788 431.342 311.149 431.083C311.446 430.892 311.687 430.625 311.847 430.311C312.008 429.997 312.083 429.646 312.065 429.293C312.061 428.842 311.91 428.405 311.633 428.049C311.421 427.796 311.256 427.721 311.245 427.738C311.332 427.873 311.427 428.003 311.529 428.127C311.752 428.483 311.869 428.895 311.865 429.315C311.86 429.619 311.775 429.917 311.621 430.179C311.466 430.441 311.247 430.659 310.984 430.811C310.665 430.991 310.304 431.081 309.938 431.071C309.573 431.061 309.217 430.951 308.909 430.753C308.621 430.524 308.403 430.218 308.282 429.871C308.161 429.523 308.142 429.148 308.226 428.789C308.294 428.495 308.438 428.223 308.642 428.001C308.847 427.778 309.106 427.613 309.394 427.521C309.781 427.375 310.202 427.348 310.605 427.442C310.934 427.496 311.081 427.583 311.096 427.557Z" fill="#263238"/>
<path d="M315.063 414.345C314.972 414.361 314.781 420.911 314.602 428.96C314.424 437.009 314.439 443.564 314.538 443.553C314.638 443.542 314.821 436.987 315 428.938C315.178 420.889 315.184 414.358 315.063 414.345Z" fill="#263238"/>
<g opacity="0.3">
<path d="M341.929 484.195C341.929 484.195 340.212 456.042 340.355 442.381C343.321 448.87 346.654 456.298 347.51 463.384C348.311 470.774 346.32 478.197 341.929 484.195V484.195Z" fill="black"/>
</g>
<path d="M301.224 416.067C290.626 413.396 284.201 402.639 286.872 392.042C289.543 381.444 300.3 375.019 310.897 377.69C321.495 380.362 327.92 391.118 325.249 401.716C322.578 412.313 311.821 418.739 301.224 416.067Z" fill="white"/>
<path d="M297.001 414.496C296.915 414.431 296.822 414.376 296.724 414.333C296.516 414.211 296.248 414.053 295.911 413.854C295.467 413.603 295.043 413.318 294.643 413.001C294.074 412.605 293.533 412.169 293.024 411.698C291.606 410.433 290.382 408.966 289.393 407.344C288.076 405.2 287.179 402.826 286.75 400.346C286.188 397.123 286.444 393.81 287.495 390.711C288.546 387.612 290.359 384.827 292.767 382.611C294.138 381.321 295.701 380.25 297.399 379.436C298.271 379.01 299.17 378.641 300.089 378.331C301.032 378.06 301.99 377.847 302.958 377.692C307.065 377.029 311.277 377.7 314.975 379.605C318.673 381.511 321.664 384.551 323.508 388.28C323.947 389.148 324.33 390.043 324.655 390.959C324.94 391.888 325.16 392.835 325.314 393.794C325.639 395.651 325.676 397.547 325.425 399.416C324.982 402.87 323.63 406.145 321.507 408.906C319.801 411.102 317.649 412.912 315.194 414.217C312.738 415.522 310.034 416.292 307.259 416.478C305.365 416.617 303.46 416.471 301.608 416.047C300.929 415.905 300.259 415.72 299.604 415.495C299.114 415.352 298.636 415.172 298.174 414.955C297.82 414.804 297.532 414.681 297.304 414.593C297.21 414.545 297.109 414.51 297.006 414.487C297.093 414.549 297.186 414.604 297.282 414.65C297.49 414.773 297.783 414.887 298.127 415.055C298.583 415.292 299.058 415.491 299.548 415.648C300.195 415.889 300.858 416.086 301.532 416.235C303.396 416.725 305.326 416.919 307.25 416.81C310.079 416.654 312.842 415.897 315.356 414.588C317.869 413.279 320.073 411.449 321.823 409.221C324.025 406.397 325.432 403.035 325.897 399.484C326.161 397.569 326.128 395.625 325.8 393.719C325.506 391.721 324.89 389.784 323.974 387.984C323.054 386.109 321.839 384.394 320.376 382.904C318.861 381.376 317.122 380.087 315.219 379.084C311.425 377.143 307.111 376.46 302.902 377.135C301.898 377.291 300.906 377.52 299.935 377.821C298.994 378.142 298.074 378.521 297.18 378.957C295.445 379.799 293.849 380.9 292.447 382.224C289.826 384.663 287.906 387.757 286.884 391.188C286.084 393.907 285.872 396.767 286.264 399.574C286.655 402.382 287.641 405.075 289.155 407.472C290.171 409.11 291.431 410.584 292.892 411.841C293.411 412.315 293.968 412.745 294.558 413.126C294.967 413.436 295.401 413.711 295.855 413.949C296.192 414.148 296.46 414.306 296.668 414.428C296.775 414.465 296.887 414.487 297.001 414.496V414.496Z" fill="#263238"/>
<path d="M303.036 329.64C302.959 329.641 302.882 329.646 302.805 329.656C302.574 329.667 302.346 329.708 302.126 329.78C301.259 330.054 300.449 330.485 299.735 331.05C297.05 333.307 294.761 335.997 292.96 339.007C289.987 343.714 287.416 348.663 285.275 353.802C282.372 360.625 279.961 367.648 278.061 374.815C277.022 378.816 276.084 383.043 275.246 387.495C274.382 392.139 273.755 396.823 273.367 401.531C272.965 406.589 272.842 411.665 273 416.737L273.592 432.905L276.327 505.748L276.336 506.01L276.598 506.001C287.193 505.595 298.297 505.174 309.608 504.759C320.918 504.345 332.024 503.902 342.628 503.501L342.884 503.501L342.875 503.239L340.133 430.369L339.505 414.203L339.19 406.516C339.038 403.968 338.665 401.477 338.349 399.031C336.916 390.089 334.642 381.303 331.556 372.79C328.935 365.847 325.87 359.079 322.381 352.529C319.825 347.587 316.9 342.845 313.631 338.344C311.65 335.461 309.214 332.92 306.418 330.819C305.673 330.297 304.837 329.919 303.953 329.704C303.727 329.651 303.494 329.627 303.261 329.633C303.183 329.626 303.105 329.627 303.027 329.635C303.334 329.641 303.639 329.681 303.937 329.752C304.806 329.986 305.627 330.375 306.358 330.9C309.141 333.029 311.564 335.59 313.536 338.486C316.77 342.998 319.664 347.745 322.194 352.687C325.631 359.235 328.65 365.995 331.232 372.925C334.284 381.423 336.526 390.19 337.929 399.11C338.294 401.514 338.635 403.999 338.777 406.505L339.062 414.222L339.668 430.386L342.38 503.25L342.632 502.979L309.617 504.229L276.607 505.471L276.878 505.723L274.098 432.877L273.492 416.713C273.324 411.657 273.434 406.597 273.82 401.553C274.197 396.685 274.861 392.021 275.654 387.573C276.447 383.125 277.361 378.887 278.397 374.897C280.27 367.742 282.652 360.73 285.524 353.914C287.628 348.776 290.158 343.822 293.088 339.106C294.866 336.1 297.123 333.406 299.77 331.129C300.47 330.56 301.263 330.117 302.115 329.82C302.417 329.737 302.725 329.677 303.036 329.64V329.64Z" fill="#263238"/>
<path d="M395.829 588.981H221.554C216.09 588.981 210.85 586.81 206.986 582.946C203.123 579.083 200.952 573.843 200.952 568.379C200.952 562.915 203.123 557.675 206.986 553.811C210.85 549.948 216.09 547.777 221.554 547.777H395.829C401.293 547.777 406.533 549.948 410.397 553.811C414.26 557.675 416.431 562.915 416.431 568.379V568.379C416.431 573.843 414.26 579.083 410.397 582.946C406.533 586.81 401.293 588.981 395.829 588.981Z" fill="white"/>
<path d="M395.828 588.98L397.052 588.89C397.557 588.881 398.061 588.831 398.558 588.739C399.251 588.653 399.938 588.522 400.615 588.348L401.839 588.027C402.261 587.886 402.692 587.716 403.154 587.545L403.856 587.284L404.569 586.933C405.077 586.709 405.57 586.451 406.044 586.16C408.361 584.827 410.39 583.046 412.014 580.922C412.499 580.317 412.939 579.676 413.329 579.006C413.759 578.315 414.138 577.594 414.463 576.848C414.815 576.07 415.123 575.272 415.386 574.46C415.497 574.038 415.607 573.617 415.717 573.175L415.888 572.523L415.988 571.851L416.199 570.476L416.259 569.071V568.349V567.626C416.259 567.134 416.259 566.623 416.169 566.151C415.921 564.105 415.383 562.105 414.573 560.21C412.713 556.015 409.516 552.554 405.482 550.366C403.296 549.198 400.916 548.44 398.457 548.128C395.929 547.847 393.269 547.988 390.57 547.958L221.593 548.038C219.555 548.066 217.53 548.366 215.572 548.931C213.649 549.553 211.819 550.435 210.133 551.55C208.493 552.683 207.014 554.033 205.738 555.564C204.498 557.123 203.484 558.849 202.727 560.692C201.996 562.531 201.524 564.463 201.322 566.432C201.161 568.387 201.262 570.354 201.623 572.282C202.379 576.107 204.222 579.633 206.932 582.438C209.588 585.201 212.974 587.153 216.696 588.067C217.607 588.294 218.532 588.462 219.465 588.569C220.409 588.569 221.332 588.699 222.285 588.679H249.881L325.855 588.739L377.033 588.82L390.961 588.87H394.584H395.818H394.584H390.961H377.033L325.855 588.96L249.881 589.01H222.285C221.342 589.01 220.369 588.94 219.415 588.9C218.459 588.79 217.51 588.619 216.575 588.388C212.752 587.459 209.271 585.462 206.541 582.628C205.168 581.196 204 579.582 203.068 577.832C202.148 576.058 201.473 574.167 201.061 572.212C200.694 570.227 200.592 568.203 200.76 566.191C201.142 562.111 202.716 558.234 205.286 555.042C207.893 551.805 211.409 549.421 215.381 548.199C217.381 547.615 219.45 547.304 221.533 547.275L390.51 547.346C393.209 547.346 395.848 547.245 398.437 547.546C400.951 547.856 403.384 548.631 405.612 549.834C409.705 552.069 412.942 555.598 414.814 559.869C415.631 561.79 416.168 563.817 416.41 565.89C416.46 566.392 416.46 566.894 416.49 567.385V568.118V568.84C416.49 569.322 416.44 569.844 416.42 570.275C416.4 570.707 416.269 571.209 416.199 571.66L416.099 572.342L415.928 573.005C415.808 573.446 415.697 573.878 415.587 574.299C415.256 575.122 415.035 575.965 414.644 576.718C414.306 577.469 413.917 578.197 413.48 578.895C413.08 579.565 412.634 580.205 412.145 580.812C410.505 582.945 408.459 584.733 406.124 586.07C405.64 586.352 405.141 586.607 404.629 586.833L403.906 587.174L403.204 587.435C402.732 587.606 402.301 587.776 401.869 587.907L400.645 588.218C399.962 588.39 399.268 588.514 398.568 588.589C398.07 588.669 397.567 588.713 397.062 588.719L395.828 588.98Z" fill="#263238"/>
<path d="M394.414 572.562C397.995 568.98 397.995 563.173 394.413 559.591C390.832 556.009 385.024 556.009 381.443 559.591C377.861 563.173 377.861 568.98 381.443 572.562C385.024 576.143 390.832 576.143 394.414 572.562Z" fill="white"/>
<path d="M387.921 576.918C386.007 576.92 384.135 576.354 382.543 575.292C380.95 574.23 379.709 572.719 378.976 570.951C378.242 569.183 378.05 567.237 378.423 565.36C378.796 563.482 379.717 561.758 381.071 560.404C382.424 559.051 384.149 558.129 386.026 557.756C387.904 557.383 389.849 557.576 391.618 558.309C393.386 559.043 394.896 560.284 395.958 561.877C397.021 563.469 397.587 565.341 397.585 567.255C397.582 569.817 396.563 572.273 394.751 574.085C392.939 575.897 390.483 576.916 387.921 576.918V576.918ZM387.921 558.585C386.206 558.583 384.528 559.089 383.101 560.041C381.674 560.992 380.561 562.346 379.904 563.93C379.246 565.514 379.073 567.257 379.406 568.94C379.74 570.622 380.565 572.168 381.777 573.382C382.989 574.595 384.534 575.422 386.216 575.757C387.898 576.093 389.642 575.922 391.227 575.266C392.811 574.61 394.166 573.499 395.119 572.073C396.072 570.647 396.581 568.97 396.581 567.255C396.581 564.957 395.669 562.753 394.045 561.128C392.421 559.502 390.219 558.587 387.921 558.585Z" fill="#263238"/>
<path d="M395.585 572.251L395.049 573.1L402.813 578.002L403.348 577.153L395.585 572.251Z" fill="#263238"/>
<path d="M132.706 765.834L133.318 795.016L94.9049 795.919C95.0353 792.447 114.724 785.011 114.724 785.011L113.52 766.336L132.706 765.834Z" fill="#455A64"/>
<g opacity="0.6">
<path d="M126.564 783.165C126.926 783.251 127.242 783.47 127.45 783.779C127.658 784.087 127.743 784.462 127.688 784.83C127.586 785.195 127.351 785.508 127.029 785.706C126.708 785.905 126.323 785.976 125.952 785.904C125.751 785.877 125.558 785.808 125.387 785.7C125.215 785.593 125.069 785.45 124.957 785.281C124.846 785.112 124.772 784.921 124.74 784.721C124.709 784.521 124.721 784.317 124.775 784.122C124.83 783.927 124.925 783.746 125.056 783.591C125.186 783.436 125.348 783.311 125.531 783.224C125.714 783.137 125.913 783.09 126.115 783.087C126.318 783.084 126.519 783.124 126.704 783.205" fill="white"/>
</g>
<g opacity="0.6">
<path d="M133.318 795.016L133.128 792.075L96.37 794.082C96.37 794.082 94.6841 794.825 94.9049 795.959L133.318 795.016Z" fill="white"/>
</g>
<path d="M114.101 784.84C114.101 785.021 115.044 785.081 115.988 785.633C116.931 786.185 117.433 786.908 117.603 786.837C117.774 786.767 117.473 785.744 116.319 785.101C115.165 784.459 114.051 784.68 114.101 784.84Z" fill="#263238"/>
<path d="M110.107 786.516C110.107 786.687 110.89 786.968 111.552 787.701C112.214 788.433 112.415 789.226 112.555 789.216C112.696 789.206 112.836 788.212 112.003 787.299C111.171 786.386 110.107 786.346 110.107 786.516Z" fill="#263238"/>
<path d="M107.939 791.122C108.11 791.122 108.351 790.269 107.849 789.306C107.347 788.343 106.454 787.982 106.374 788.132C106.294 788.283 106.856 788.784 107.257 789.577C107.658 790.37 107.759 791.112 107.939 791.122Z" fill="#263238"/>
<path d="M114.341 780.556C114.422 780.716 115.285 780.455 116.348 780.496C117.412 780.536 118.245 780.837 118.355 780.686C118.466 780.536 117.633 779.914 116.348 779.883C115.064 779.853 114.231 780.425 114.341 780.556Z" fill="#263238"/>
<path d="M115.124 776.23C115.76 776.379 116.424 776.362 117.051 776.18C117.742 776.047 118.415 775.835 119.058 775.548C119.432 775.378 119.794 775.183 120.142 774.966C120.354 774.849 120.547 774.7 120.714 774.525C120.834 774.4 120.905 774.237 120.916 774.064C120.928 773.891 120.877 773.72 120.774 773.581C120.677 773.454 120.55 773.353 120.405 773.284C120.26 773.216 120.101 773.184 119.941 773.19C119.7 773.196 119.46 773.233 119.229 773.3C118.819 773.405 118.419 773.546 118.035 773.722C117.399 774.009 116.813 774.395 116.299 774.866C115.426 775.658 115.135 776.331 115.205 776.361C115.275 776.391 115.706 775.859 116.6 775.187C117.121 774.801 117.687 774.481 118.285 774.234C118.645 774.095 119.014 773.981 119.389 773.892C119.791 773.782 120.132 773.772 120.242 773.892C120.353 774.013 120.242 773.983 120.242 774.103C120.121 774.229 119.982 774.337 119.831 774.424C119.506 774.632 119.171 774.822 118.827 774.996C118.237 775.293 117.618 775.532 116.981 775.709C116.35 775.837 115.73 776.011 115.124 776.23V776.23Z" fill="#263238"/>
<path d="M115.347 776.481C115.693 775.961 115.856 775.339 115.808 774.715C115.829 774.033 115.724 773.352 115.497 772.708C115.36 772.327 115.186 771.961 114.975 771.615C114.857 771.373 114.68 771.165 114.461 771.009C114.242 770.853 113.988 770.754 113.721 770.721C113.553 770.729 113.39 770.783 113.251 770.877C113.111 770.971 112.999 771.101 112.928 771.253C112.834 771.466 112.776 771.693 112.758 771.926C112.692 772.331 112.692 772.744 112.758 773.15C112.886 773.831 113.183 774.469 113.621 775.006C114.403 775.93 115.186 776.12 115.206 776.06C115.226 776 114.604 775.649 114.002 774.755C113.661 774.246 113.438 773.666 113.35 773.06C113.295 772.71 113.295 772.355 113.35 772.006C113.35 771.625 113.54 771.303 113.691 771.344C113.841 771.384 114.223 771.615 114.383 771.926C114.581 772.244 114.749 772.58 114.885 772.929C115.116 773.506 115.259 774.115 115.306 774.735C115.457 775.789 115.276 776.451 115.347 776.481Z" fill="#263238"/>
<path d="M161.817 768.263L165.52 797.213L203.652 792.477C203.01 789.065 182.449 784.6 182.449 784.6L180.903 765.945L161.817 768.263Z" fill="#455A64"/>
<g opacity="0.6">
<path d="M170.427 784.499C170.08 784.637 169.797 784.9 169.635 785.237C169.473 785.573 169.444 785.959 169.554 786.316C169.71 786.659 169.99 786.932 170.337 787.08C170.684 787.229 171.074 787.243 171.43 787.119C171.799 786.974 172.099 786.694 172.269 786.336C172.439 785.978 172.465 785.569 172.344 785.192C172.143 784.861 171.828 784.614 171.459 784.498C171.09 784.382 170.691 784.404 170.337 784.56" fill="white"/>
</g>
<g opacity="0.6">
<path d="M165.519 797.214L165.268 794.273L201.915 790.842C201.915 790.842 203.651 791.283 203.651 792.477L165.519 797.214Z" fill="white"/>
</g>
<path d="M183.001 784.339C183.001 784.519 182.098 784.71 181.245 785.393C180.392 786.075 180 786.868 179.82 786.817C179.639 786.767 179.82 785.724 180.823 784.921C181.827 784.118 183.021 784.168 183.001 784.339Z" fill="#263238"/>
<path d="M187.186 785.402C187.256 785.573 186.484 785.974 185.942 786.797C185.4 787.62 185.309 788.423 185.129 788.443C184.948 788.463 184.697 787.44 185.39 786.436C186.082 785.433 187.166 785.262 187.186 785.402Z" fill="#263238"/>
<path d="M190.006 789.647C189.845 789.708 189.484 788.865 189.845 787.841C190.206 786.818 191.029 786.326 191.12 786.456C191.21 786.587 190.738 787.179 190.457 788.022C190.176 788.865 190.196 789.607 190.006 789.647Z" fill="#263238"/>
<path d="M182.149 780.134C182.088 780.304 181.205 780.134 180.142 780.365C179.078 780.595 178.315 780.977 178.205 780.836C178.095 780.696 178.797 779.973 180.031 779.753C181.266 779.532 182.229 779.983 182.149 780.134Z" fill="#263238"/>
<path d="M180.724 775.97C180.117 776.205 179.461 776.281 178.817 776.191C178.117 776.167 177.422 776.056 176.75 775.859C176.352 775.752 175.963 775.615 175.586 775.448C175.358 775.364 175.145 775.245 174.954 775.097C174.818 774.99 174.724 774.84 174.687 774.671C174.651 774.503 174.674 774.327 174.753 774.174C174.835 774.035 174.947 773.918 175.081 773.829C175.214 773.74 175.367 773.683 175.526 773.662C175.765 773.631 176.008 773.631 176.248 773.662C176.666 773.702 177.08 773.783 177.482 773.903C178.156 774.092 178.796 774.387 179.379 774.776C180.382 775.438 180.734 776.06 180.673 776.1C180.613 776.14 180.101 775.669 179.128 775.147C178.218 774.647 177.213 774.346 176.178 774.264C175.756 774.214 175.415 774.264 175.335 774.434C175.255 774.605 175.335 774.535 175.405 774.635C175.546 774.741 175.701 774.826 175.867 774.886C176.215 775.051 176.573 775.192 176.94 775.307C177.569 775.511 178.213 775.659 178.867 775.749C179.491 775.775 180.111 775.849 180.724 775.97V775.97Z" fill="#263238"/>
<path d="M180.512 776.231C180.093 775.764 179.843 775.171 179.8 774.545C179.68 773.881 179.68 773.202 179.8 772.538C179.873 772.141 179.991 771.754 180.151 771.384C180.23 771.128 180.373 770.896 180.566 770.71C180.759 770.524 180.996 770.39 181.255 770.32C181.422 770.301 181.591 770.329 181.743 770.4C181.895 770.47 182.025 770.582 182.118 770.722C182.237 770.923 182.328 771.139 182.389 771.364C182.507 771.757 182.558 772.168 182.539 772.578C182.526 773.287 182.325 773.979 181.957 774.585C181.325 775.589 180.573 775.92 180.542 775.86C180.512 775.799 181.084 775.358 181.546 774.394C181.806 773.839 181.94 773.232 181.937 772.618C181.935 772.278 181.881 771.939 181.777 771.615C181.676 771.233 181.486 770.942 181.335 771.003C181.185 771.063 180.864 771.354 180.743 771.675C180.595 771.999 180.474 772.335 180.382 772.678C180.248 773.284 180.197 773.905 180.231 774.525C180.332 775.579 180.573 776.231 180.512 776.231Z" fill="#263238"/>
<path d="M102.914 610.967L162.712 612.883C162.712 612.883 176.811 706.99 176.419 713.543L185.109 781.78L159.822 782.673C159.822 782.673 155.808 760.526 153.068 745.374C151.222 735.339 147.85 720.507 146.937 712.088C146.024 703.669 131.232 644.854 131.232 644.854C131.232 644.854 132.326 713.091 132.296 715.901C132.266 718.711 135.226 782.593 135.226 782.593H110.139C108.844 771.063 105.764 724.922 105.121 715.6C103.917 698.762 100.104 651.196 99.5923 639.044C99.0805 626.892 102.914 610.967 102.914 610.967Z" fill="#263238"/>
<path d="M106.856 611.428C107.136 610.013 107.136 608.558 106.856 607.143C106.562 608.556 106.562 610.015 106.856 611.428V611.428Z" fill="#455A64"/>
<path d="M104.368 612.562C104.844 610.757 104.684 608.844 103.916 607.143C103.943 608.051 104.031 608.956 104.177 609.852C104.18 610.759 104.244 611.664 104.368 612.562V612.562Z" fill="#455A64"/>
<path d="M126.704 608.077C127.189 608.176 127.631 608.426 127.968 608.789C128.137 608.98 128.261 609.206 128.332 609.451C128.403 609.695 128.419 609.952 128.38 610.204C128.295 610.493 128.132 610.752 127.909 610.954C127.686 611.156 127.411 611.292 127.115 611.348C126.82 611.405 126.514 611.378 126.233 611.272C125.951 611.165 125.705 610.983 125.52 610.746C125.393 610.526 125.315 610.281 125.291 610.028C125.267 609.776 125.297 609.521 125.379 609.281C125.555 608.815 125.88 608.42 126.303 608.157C126.303 608.157 126.132 608.157 125.881 608.267C125.525 608.47 125.249 608.789 125.098 609.17C124.973 609.454 124.915 609.763 124.929 610.073C124.943 610.383 125.028 610.685 125.179 610.957C125.4 611.275 125.708 611.523 126.067 611.67C126.426 611.817 126.82 611.857 127.202 611.785C127.583 611.713 127.935 611.531 128.215 611.263C128.495 610.995 128.692 610.652 128.781 610.274C128.822 609.966 128.791 609.652 128.69 609.358C128.589 609.063 128.421 608.796 128.199 608.578C127.916 608.281 127.542 608.087 127.136 608.026C126.855 607.996 126.704 608.056 126.704 608.077Z" fill="#455A64"/>
<path d="M154.271 711.927C156.454 711.266 158.593 710.465 160.673 709.529C162.811 708.729 164.896 707.794 166.915 706.729C164.73 707.394 162.588 708.195 160.503 709.128C158.369 709.93 156.288 710.865 154.271 711.927V711.927Z" fill="#455A64"/>
<path d="M157.492 469.525C157.301 466.043 155.153 463.895 152.153 462.119C150.64 461.241 148.938 460.742 147.191 460.663C145.444 460.584 143.704 460.929 142.118 461.668C140.011 462.671 138.164 464.377 135.856 464.678C132.043 465.17 128.441 461.668 124.708 462.52C123.594 462.788 122.607 463.432 121.915 464.344C121.222 465.257 120.867 466.381 120.91 467.525C120.952 468.67 121.39 469.764 122.148 470.623C122.906 471.481 123.938 472.051 125.069 472.234C122.57 472.595 121.165 475.756 122.058 478.095C122.952 480.433 125.591 481.807 128.079 481.858C130.614 481.777 133.079 481.003 135.204 479.62C137.382 478.356 139.419 476.83 141.697 475.746C143.933 474.539 146.523 474.159 149.012 474.673C152.314 475.546 154.652 478.687 155.505 481.958C156.358 485.229 155.996 488.752 155.505 492.123C155.013 495.495 154.341 498.897 154.662 502.299C154.659 502.492 154.702 502.683 154.785 502.857C154.869 503.031 154.991 503.183 155.143 503.302C155.645 503.583 156.227 503.112 156.599 502.67C160.825 497.656 164.023 491.859 166.011 485.611C167.165 481.998 167.797 478.476 166.423 474.944C165.048 471.411 160.402 468.05 157.451 469.485" fill="#263238"/>
<path d="M160.732 486.343L155.163 520.733C154.16 527.155 149.945 533.367 139.87 531.259C131.26 528.771 131.902 522.579 133.026 514.943C133.026 514.943 123.553 512.484 124.406 502.851C124.808 498.194 126.413 488.681 128.009 480.092C128.823 475.644 131.283 471.665 134.897 468.949C138.512 466.232 143.018 464.976 147.517 465.431L148.45 465.521C158.394 467.157 162.599 476.449 160.732 486.343Z" fill="#FFBE9D"/>
<path d="M133.027 514.943C137.467 515.377 141.938 514.531 145.912 512.504C145.912 512.504 142.139 519.649 132.636 517.823L133.027 514.943Z" fill="#EB996E"/>
<path d="M129.896 488.511C129.856 488.868 129.958 489.227 130.179 489.51C130.4 489.793 130.724 489.979 131.08 490.026C131.253 490.059 131.431 490.057 131.603 490.019C131.775 489.982 131.938 489.909 132.081 489.807C132.225 489.705 132.346 489.575 132.438 489.424C132.53 489.274 132.59 489.107 132.616 488.932C132.655 488.575 132.554 488.216 132.332 487.933C132.111 487.65 131.788 487.465 131.431 487.417C131.259 487.386 131.081 487.389 130.909 487.427C130.738 487.465 130.576 487.538 130.433 487.64C130.29 487.742 130.168 487.871 130.076 488.021C129.984 488.171 129.923 488.337 129.896 488.511Z" fill="#263238"/>
<path d="M129.595 485.019C129.745 485.22 130.869 484.547 132.344 484.708C133.82 484.868 134.833 485.711 135.014 485.541C135.194 485.37 134.953 485.129 134.522 484.738C133.925 484.229 133.186 483.917 132.405 483.845C131.636 483.76 130.861 483.929 130.197 484.326C129.705 484.628 129.525 484.929 129.595 485.019Z" fill="#263238"/>
<path d="M143.353 490.638C143.313 490.996 143.415 491.354 143.636 491.637C143.857 491.921 144.181 492.106 144.537 492.154C144.71 492.187 144.888 492.184 145.06 492.147C145.232 492.109 145.395 492.037 145.539 491.935C145.682 491.832 145.803 491.702 145.895 491.552C145.987 491.402 146.047 491.234 146.073 491.06C146.112 490.703 146.011 490.344 145.79 490.061C145.568 489.777 145.245 489.592 144.888 489.545C144.716 489.513 144.538 489.516 144.367 489.555C144.195 489.593 144.033 489.665 143.89 489.767C143.747 489.869 143.625 489.999 143.533 490.148C143.441 490.298 143.38 490.465 143.353 490.638V490.638Z" fill="#263238"/>
<path d="M143.816 486.755C143.976 486.945 145.09 486.283 146.565 486.434C148.04 486.584 149.054 487.437 149.234 487.277C149.415 487.116 149.174 486.865 148.743 486.474C148.146 485.965 147.406 485.653 146.625 485.581C145.858 485.5 145.085 485.665 144.418 486.052C143.926 486.353 143.745 486.665 143.816 486.755Z" fill="#263238"/>
<path d="M137.634 497.181C136.881 496.852 136.088 496.623 135.276 496.499C134.904 496.428 134.553 496.318 134.513 496.047C134.524 495.655 134.649 495.275 134.874 494.953C135.326 494.08 135.797 493.157 136.279 492.194C138.286 488.26 139.701 485.009 139.54 484.928C138.082 487.167 136.8 489.515 135.707 491.953L134.342 494.743C134.065 495.174 133.945 495.688 134.001 496.198C134.04 496.338 134.112 496.467 134.209 496.575C134.307 496.682 134.428 496.766 134.563 496.82C134.768 496.892 134.98 496.942 135.195 496.97C135.996 497.14 136.815 497.211 137.634 497.181V497.181Z" fill="#263238"/>
<path d="M144.296 480.925C144.396 481.346 145.891 481.306 147.607 481.687C149.323 482.069 150.678 482.691 150.939 482.35C151.059 482.179 150.859 481.778 150.327 481.346C149.625 480.801 148.81 480.42 147.942 480.232C147.073 480.045 146.173 480.055 145.309 480.262C144.607 480.443 144.256 480.734 144.296 480.925Z" fill="#263238"/>
<path d="M130.568 480.794C130.799 481.165 131.853 480.914 133.077 481.025C134.301 481.135 135.315 481.476 135.586 481.145C135.706 480.985 135.586 480.633 135.154 480.272C134.587 479.836 133.903 479.577 133.19 479.527C132.476 479.477 131.763 479.639 131.14 479.991C130.649 480.292 130.468 480.623 130.568 480.794Z" fill="#263238"/>
<path d="M159.237 493.388C159.408 493.328 166.041 492.094 165.168 498.646C164.295 505.199 157.893 502.982 157.913 502.791C157.933 502.6 159.237 493.388 159.237 493.388Z" fill="#FFBE9D"/>
<path d="M160.241 500.573C160.241 500.573 160.341 500.663 160.522 500.784C160.78 500.933 161.084 500.979 161.375 500.914C161.835 500.7 162.229 500.369 162.518 499.952C162.807 499.536 162.981 499.051 163.021 498.546C163.116 497.987 163.081 497.414 162.92 496.87C162.89 496.654 162.805 496.45 162.676 496.274C162.546 496.099 162.375 495.959 162.178 495.866C162.052 495.812 161.911 495.804 161.781 495.845C161.65 495.885 161.538 495.971 161.465 496.087C161.345 496.258 161.375 496.398 161.335 496.398C161.295 496.398 161.214 496.268 161.335 496.007C161.391 495.85 161.502 495.719 161.646 495.636C161.844 495.523 162.077 495.49 162.298 495.545C162.55 495.642 162.773 495.801 162.948 496.006C163.124 496.211 163.245 496.456 163.302 496.719C163.505 497.327 163.557 497.974 163.452 498.606C163.407 499.189 163.193 499.746 162.837 500.209C162.481 500.672 161.997 501.022 161.445 501.215C161.265 501.239 161.081 501.222 160.908 501.167C160.734 501.111 160.575 501.018 160.442 500.894C160.231 500.733 160.221 500.583 160.241 500.573Z" fill="#EB996E"/>
<path d="M128.793 471.171C129.916 469.401 131.465 467.942 133.299 466.926C137.144 464.535 141.645 463.415 146.163 463.725C150.698 464.078 154.919 466.179 157.934 469.585C160.24 472.378 161.674 475.788 162.059 479.389C162.433 482.976 162.092 486.602 161.055 490.056C160.734 491.612 159.963 493.039 158.837 494.16C158.085 494.803 156.83 495.164 156.158 494.482C155.783 494.032 155.567 493.471 155.546 492.886C154.793 487.688 154.091 482.099 156.439 477.402C155.401 475.599 154.004 474.028 152.335 472.786C151.496 472.171 150.543 471.729 149.532 471.486C148.521 471.243 147.471 471.204 146.444 471.371C143.434 471.973 141.326 474.643 138.788 476.389C136.957 477.626 134.859 478.41 132.666 478.677C130.473 478.944 128.248 478.686 126.174 477.924L128.793 471.171Z" fill="#263238"/>
<path d="M136.328 501.165C136.404 501.788 136.57 502.396 136.82 502.971C136.948 503.259 137.134 503.516 137.368 503.727C137.601 503.937 137.876 504.097 138.174 504.196C138.502 504.264 138.842 504.25 139.163 504.153C139.484 504.057 139.775 503.882 140.011 503.644C140.471 503.155 140.766 502.533 140.854 501.868C140.954 501.265 140.854 500.513 140.262 500.312C140.017 500.257 139.764 500.257 139.519 500.312L136.167 500.924" fill="#EB996E"/>
<path d="M137.032 503.965C137.581 504.112 138.152 504.16 138.718 504.105C139.301 504.009 139.827 503.697 140.193 503.232C140.407 502.949 140.559 502.624 140.639 502.278C140.719 501.932 140.724 501.573 140.654 501.225C140.621 501.048 140.563 500.876 140.484 500.714C140.393 500.553 140.414 500.563 140.273 500.563C140.094 500.583 139.917 500.613 139.741 500.653L139.189 500.754L137.283 501.075C136.701 501.213 136.103 501.264 135.507 501.225C136.037 500.951 136.611 500.768 137.202 500.683C137.744 500.543 138.376 500.402 139.089 500.242L139.631 500.121C139.832 500.121 139.982 500.031 140.243 500.011C140.405 499.998 140.566 500.037 140.705 500.121C140.822 500.213 140.918 500.329 140.986 500.463C141.089 500.669 141.163 500.888 141.206 501.115C141.294 501.543 141.284 501.985 141.178 502.409C141.072 502.832 140.873 503.227 140.594 503.563C140.132 504.103 139.476 504.438 138.768 504.497C138.309 504.553 137.843 504.48 137.423 504.286C137.132 504.125 137.012 503.995 137.032 503.965Z" fill="#263238"/>
<path d="M112.596 487.026L111.04 486.604L86.8262 510.136L67.1779 512.504C67.1779 512.504 67.3786 506.574 74.7542 499.007C81.3772 492.244 96.7808 484.216 101.999 480.061C102.673 479.492 103.435 479.038 104.257 478.717L112.596 487.026Z" fill="#FFBE9D"/>
<path d="M112.606 475.827L115.085 475.124L120.925 472.355L127.568 474.833C127.568 474.833 127.418 477.101 125.672 476.479L132.636 478.777C132.636 478.777 132.064 480.433 131.753 480.543C131.442 480.654 135.837 481.015 135.837 481.015C135.837 481.015 135.837 483.253 131.672 483.212C127.508 483.172 125.892 482.46 125.892 482.46L122.551 483.353L122.681 485.36L127.237 485.29L127.026 487.839C125.091 488.247 123.135 488.549 121.166 488.742C121.166 488.742 114.142 488.842 112.235 487.919C110.328 486.996 107.9 485.681 107.9 485.681L104.257 478.737L112.606 475.827Z" fill="#FFBE9D"/>
<path d="M118.877 477.001C118.877 477.061 119.268 476.871 119.881 476.59C120.7 476.238 121.489 475.818 122.239 475.335H121.938L122.209 475.506C123.038 476.036 123.973 476.378 124.948 476.509C125.691 476.61 126.152 476.509 126.152 476.509C124.872 476.204 123.637 475.731 122.48 475.104L122.229 474.944L122.078 474.844L121.928 474.954C121.115 475.516 120.262 475.957 119.7 476.309C119.138 476.66 118.827 476.951 118.877 477.001Z" fill="#EB996E"/>
<path d="M121.015 480.543C121.015 480.543 121.467 480.704 122.139 480.413C122.812 480.122 123.564 479.409 124.518 479.008H124.277C124.705 479.296 125.154 479.551 125.621 479.77C126.796 480.332 128.073 480.646 129.374 480.694C129.909 480.762 130.452 480.704 130.96 480.523C129.201 480.382 127.475 479.969 125.842 479.299C125.398 479.092 124.968 478.854 124.558 478.586L124.427 478.516H124.317C123.233 479.068 122.601 479.801 122.009 480.102C121.417 480.403 121.015 480.463 121.015 480.543Z" fill="#EB996E"/>
<path d="M114.794 482.721C114.794 482.801 115.306 482.651 116.098 482.661C117.125 482.674 118.126 482.976 118.988 483.534C119.559 483.902 120.047 484.383 120.423 484.949L120.484 485.039H120.574C121.347 485.259 122.149 485.357 122.952 485.33C122.233 484.965 121.461 484.718 120.664 484.597L120.815 484.698C120.438 484.045 119.912 483.491 119.279 483.082C118.336 482.463 117.212 482.181 116.088 482.279C115.225 482.38 114.764 482.671 114.794 482.721Z" fill="#EB996E"/>
<path d="M107.9 485.661C107.96 485.714 108.028 485.758 108.1 485.792L108.733 486.153L111.161 487.467C111.735 487.82 112.352 488.096 112.997 488.29C113.774 488.471 114.562 488.598 115.356 488.672C117.062 488.842 119.008 488.912 121.166 488.912L123.785 488.641C124.754 488.561 125.714 488.396 126.655 488.15H126.755V488.019C126.896 487.146 127.046 486.193 127.207 485.22L127.257 484.939H126.976L122.641 485.119L122.902 485.34C122.902 484.728 122.812 484.045 122.771 483.333L122.581 483.594L125.932 482.701H125.762C127.389 483.196 129.079 483.452 130.779 483.463C131.661 483.519 132.546 483.475 133.418 483.333C133.895 483.274 134.353 483.115 134.763 482.866C135.173 482.616 135.525 482.283 135.797 481.888C135.948 481.624 136.037 481.329 136.058 481.025V480.794H135.807C134.803 480.704 133.73 480.614 132.716 480.503L131.973 480.403H131.813V480.453C131.843 480.48 131.865 480.515 131.876 480.554C131.886 480.594 131.885 480.635 131.873 480.674C131.873 480.764 131.692 480.884 131.733 480.844C131.791 480.82 131.846 480.786 131.893 480.744C132.002 480.631 132.093 480.502 132.164 480.363C132.396 479.902 132.597 479.426 132.766 478.938L132.856 478.687L132.606 478.607L125.581 476.319L125.421 476.78C125.703 476.884 126.006 476.919 126.304 476.881C126.609 476.826 126.887 476.667 127.086 476.429C127.422 475.992 127.618 475.464 127.648 474.914V474.743L127.468 474.673L120.815 472.224H120.734H120.654L114.824 475.024L112.385 475.727L110.258 476.479L106.886 477.703L104.769 478.486C104.518 478.561 104.276 478.662 104.046 478.787C104.301 478.731 104.552 478.661 104.799 478.576L106.946 477.884L110.348 476.75L112.476 476.038L114.924 475.375L120.785 472.636H120.614L127.257 475.134L127.096 474.894C127.07 475.341 126.913 475.77 126.645 476.128C126.5 476.272 126.315 476.368 126.114 476.404C125.913 476.44 125.707 476.413 125.521 476.329L125.36 476.8L132.315 479.108L132.154 478.777C132.001 479.24 131.809 479.69 131.582 480.122C131.539 480.212 131.485 480.296 131.422 480.373V480.373C131.45 480.408 131.47 480.449 131.482 480.493V480.493C131.381 480.232 131.482 480.423 131.411 480.373H131.341C131.295 480.411 131.263 480.464 131.251 480.523C131.241 480.566 131.243 480.611 131.255 480.653C131.267 480.695 131.29 480.733 131.321 480.764C131.401 480.844 131.381 480.814 131.401 480.824H131.492H131.702L132.475 480.925C133.479 481.045 134.482 481.135 135.576 481.226L135.345 480.975C135.322 481.183 135.257 481.384 135.154 481.567C134.921 481.895 134.623 482.17 134.277 482.376C133.931 482.581 133.547 482.713 133.148 482.761C132.312 482.897 131.463 482.937 130.619 482.881C128.985 482.876 127.36 482.64 125.792 482.179H125.692H125.621L122.28 483.082H122.079V483.283C122.079 483.975 122.169 484.658 122.209 485.29V485.531H122.45L126.775 485.33L126.535 485.059C126.384 486.062 126.233 486.996 126.103 487.869L126.223 487.708C125.327 487.933 124.414 488.09 123.494 488.18L120.895 488.471C118.758 488.471 116.821 488.471 115.125 488.31C114.342 488.257 113.564 488.15 112.797 487.989C112.166 487.81 111.559 487.554 110.991 487.226L108.522 486.002L107.87 485.701C107.98 485.681 107.91 485.651 107.9 485.661Z" fill="#EB996E"/>
<path d="M116.289 478.105C116.926 479.173 117.81 480.071 118.868 480.724C119.835 481.508 120.973 482.051 122.19 482.31C122.25 482.169 120.785 481.457 119.179 480.303C117.574 479.149 116.41 478.005 116.289 478.105Z" fill="#EB996E"/>
<path d="M67.3881 511.772L86.8256 510.136L109.745 518.857L114.763 521.927L107.618 546.432C107.618 546.432 71.7031 525.269 70.1778 523.463C68.8096 521.88 67.8419 519.992 67.3564 517.958C66.8709 515.923 66.8818 513.801 67.3881 511.772V511.772Z" fill="#FFB64F"/>
<path d="M171.151 529.784L177.834 533.929L162.4 594.69L165.2 629.722C161.186 633.194 151.151 636.174 132.085 635.09C113.019 634.007 100.295 625.708 100.295 625.708L102.121 589.673L106.466 549.011L111.333 521.205L126.024 522.268L131.754 518.877L134.323 520.161L137.614 529.293L146.184 523.091L156.219 518.264L159.882 525.098L171.151 529.784Z" fill="#FFB64F"/>
<path d="M111.332 528.279C111.118 528.711 110.943 529.161 110.81 529.624C110.489 530.507 110.088 531.791 109.606 533.397C108.379 537.576 107.374 541.816 106.596 546.101C105.841 550.385 105.311 554.706 105.01 559.046C104.9 560.712 104.85 562.056 104.839 562.99C104.788 563.473 104.788 563.961 104.839 564.445C104.935 563.968 104.992 563.485 105.01 563C105.1 561.996 105.211 560.662 105.351 559.076C105.662 555.765 106.194 551.189 107.087 546.191C107.98 541.194 109.044 536.718 109.897 533.497C110.308 531.962 110.66 530.677 110.901 529.684C111.096 529.233 111.241 528.762 111.332 528.279V528.279Z" fill="#263238"/>
<path d="M140.353 528.761C140.842 528.677 141.311 528.504 141.737 528.249C142.926 527.623 143.955 526.734 144.748 525.65L144.387 525.55C144.596 528.543 145.2 531.496 146.183 534.33L146.293 534.651L146.574 534.461L147.277 533.969C150.739 531.591 153.85 529.413 156.087 527.808L158.716 525.891C159.052 525.672 159.362 525.417 159.64 525.128C159.284 525.287 158.947 525.486 158.636 525.72L155.917 527.507C153.619 529.022 150.478 531.159 147.026 533.528L146.313 534.009L146.715 534.14C145.74 531.346 145.107 528.445 144.828 525.5V524.958L144.517 525.399C143.771 526.465 142.81 527.364 141.697 528.038C140.824 528.53 140.333 528.711 140.353 528.761Z" fill="#263238"/>
<path d="M126.615 523.352C127.606 524.668 128.696 525.906 129.877 527.055L130.057 527.246L130.238 527.045C130.912 526.256 131.639 525.515 132.415 524.827C132.837 524.466 133.248 524.125 133.66 523.824L134.272 523.372C134.318 523.361 134.365 523.354 134.412 523.352C134.412 523.352 134.412 523.352 134.503 523.503L135.436 525.891C135.69 526.645 136.027 527.368 136.439 528.048C136.315 527.263 136.099 526.496 135.797 525.76C135.536 525.008 135.255 524.195 134.964 523.332C134.938 523.24 134.893 523.155 134.833 523.081C134.772 523.006 134.698 522.945 134.613 522.901C134.516 522.868 134.412 522.859 134.311 522.875C134.21 522.891 134.114 522.93 134.031 522.991L133.389 523.452C132.957 523.764 132.526 524.115 132.104 524.456C131.305 525.158 130.566 525.927 129.897 526.754H130.258C129.134 525.527 127.916 524.39 126.615 523.352V523.352Z" fill="#263238"/>
<path d="M130.589 632.461C124.155 631.253 117.527 631.581 111.245 633.419C104.962 635.257 99.2024 638.553 94.4348 643.038C89.6671 647.524 86.0263 653.072 83.8088 659.23C81.5913 665.389 80.8598 671.985 81.6738 678.48C82.4879 684.975 84.8245 691.186 88.4934 696.607C92.1623 702.028 97.0598 706.506 102.787 709.676C108.514 712.846 114.909 714.619 121.451 714.85C127.993 715.08 134.497 713.763 140.433 711.004V711.004C148.413 707.288 155.008 701.134 159.266 693.43C163.525 685.725 165.227 676.867 164.128 668.133C163.028 659.399 159.184 651.239 153.149 644.83C147.115 638.421 139.201 634.093 130.548 632.471L130.589 632.461ZM115.767 711.415C106.692 709.701 98.5278 704.801 92.7461 697.599C86.9645 690.397 83.9457 681.366 84.234 672.135C84.5222 662.904 88.0984 654.079 94.3181 647.252C100.538 640.425 108.992 636.044 118.156 634.898C127.32 633.753 136.592 635.92 144.301 641.007C152.009 646.094 157.647 653.767 160.197 662.644C162.748 671.52 162.044 681.016 158.212 689.419C154.381 697.822 147.673 704.58 139.299 708.475C131.955 711.891 123.725 712.919 115.767 711.415V711.415Z" fill="#455A64"/>
<path d="M122.992 716.895C133.94 716.91 144.496 712.822 152.578 705.437C160.66 698.053 165.681 687.908 166.652 677.004C167.622 666.099 164.472 655.227 157.821 646.531C151.171 637.835 141.503 631.947 130.725 630.028C119.947 628.109 108.841 630.299 99.5977 636.165C90.3544 642.031 83.6447 651.147 80.7921 661.717C77.9395 672.286 79.1509 683.541 84.1876 693.261C89.2242 702.981 97.7203 710.461 108 714.225C112.802 715.99 117.877 716.894 122.992 716.895V716.895ZM122.902 636.505C128.022 636.502 133.086 637.566 137.77 639.632C142.455 641.697 146.657 644.718 150.107 648.5C153.558 652.282 156.181 656.743 157.808 661.597C159.436 666.451 160.033 671.592 159.56 676.69C159.087 681.787 157.556 686.73 155.063 691.203C152.571 695.675 149.172 699.577 145.085 702.661C140.998 705.744 136.313 707.94 131.328 709.109C126.344 710.278 121.17 710.394 116.138 709.449V709.449C110.395 708.359 104.992 705.922 100.374 702.337C95.756 698.752 92.0553 694.122 89.5762 688.827C86.9712 683.222 85.8194 677.052 86.2272 670.885C86.635 664.717 88.5892 658.752 91.9096 653.539C95.23 648.326 99.8096 644.033 105.226 641.056C110.642 638.079 116.721 636.514 122.902 636.505V636.505Z" fill="#455A64"/>
<path d="M224.053 632.732L223.682 631.829C222.899 629.892 221.173 628.758 219.829 629.31L159.078 654.026C158.777 654.146 158.676 654.598 158.847 655.029L161.436 661.392C161.616 661.823 161.998 662.074 162.299 661.953L223.05 637.187C224.395 636.636 224.846 634.629 224.053 632.732Z" fill="#455A64"/>
<path d="M167.316 562.729L174.622 586.903L170.959 636.174L181.736 637.529C181.736 637.529 194.079 595.603 192.855 588.017C191.631 580.43 186.593 558.333 186.593 558.333L167.316 562.729Z" fill="#FFBE9D"/>
<path d="M170.989 635.823L165.971 644.393L162.841 652.42L167.527 650.584C167.527 650.584 169.534 660.278 170.347 660.529C171.159 660.779 173.417 659.997 173.187 658.14C173.521 658.466 173.925 658.711 174.369 658.857C174.812 659.003 175.283 659.047 175.745 658.983C177.17 658.692 177.512 657.769 177.351 655.973C177.351 655.973 179.007 657.317 180 656.485C180.304 656.185 180.541 655.824 180.695 655.427C180.849 655.029 180.916 654.603 180.893 654.177C180.893 654.177 183.051 654.357 183.352 653.243C183.669 651.413 183.709 649.546 183.472 647.704C183.221 646.48 182.178 641.502 182.178 641.502L181.696 637.489L170.989 635.823Z" fill="#FFBE9D"/>
<path d="M172.164 652.551C172.555 653.423 172.809 654.351 172.916 655.301C173.164 656.226 173.269 657.184 173.227 658.141C172.834 657.269 172.58 656.341 172.475 655.391C172.227 654.466 172.122 653.508 172.164 652.551V652.551Z" fill="#EB996E"/>
<path d="M176.558 651.437C176.926 652.114 177.155 652.857 177.23 653.624C177.453 654.365 177.532 655.142 177.461 655.912C177.101 655.229 176.873 654.483 176.789 653.715C176.571 652.976 176.493 652.204 176.558 651.437V651.437Z" fill="#EB996E"/>
<path d="M180.231 650.403C180.449 651.012 180.565 651.653 180.573 652.3C180.743 653.303 181.014 654.156 180.884 654.206C180.438 653.694 180.173 653.048 180.131 652.37C179.979 651.718 180.014 651.036 180.231 650.403V650.403Z" fill="#EB996E"/>
<path d="M167.196 647.784C167.584 648.64 167.854 649.545 167.999 650.474C168.289 651.368 168.465 652.295 168.521 653.233C168.036 652.419 167.712 651.52 167.567 650.584C167.271 649.682 167.145 648.733 167.196 647.784V647.784Z" fill="#EB996E"/>
<path d="M193.448 604.293C193.448 603.47 196.819 591.99 195.796 586.039C194.772 580.089 182.53 539.879 180.884 537.009C179.587 535.073 177.777 533.538 175.656 532.574C173.294 533.854 171.213 535.597 169.539 537.699C167.865 539.8 166.632 542.218 165.912 544.806C163.453 553.627 163.453 564.695 163.453 564.695L173.298 589.11L172.124 602.978L193.448 604.293Z" fill="#FFB64F"/>
<path d="M164.076 563.893C164.176 563.893 163.986 562.087 164.076 559.196C164.138 557.516 164.302 555.84 164.568 554.179C165.205 550.082 166.464 546.106 168.301 542.388C169.047 540.87 169.885 539.399 170.809 537.983C172.395 535.554 173.579 534.2 173.509 534.139C173.182 534.411 172.886 534.717 172.626 535.053C171.875 535.905 171.178 536.803 170.538 537.742C169.562 539.145 168.684 540.614 167.909 542.137C166.009 545.886 164.731 549.919 164.126 554.079C163.886 555.774 163.758 557.484 163.745 559.196C163.729 560.346 163.786 561.496 163.915 562.638C163.929 563.061 163.983 563.481 164.076 563.893V563.893Z" fill="#263238"/>
<path d="M164.707 569C164.953 570.031 165.288 571.039 165.711 572.011C166.423 573.867 167.497 576.386 168.721 579.136L171.892 586.16C172.278 587.158 172.734 588.127 173.257 589.06C173.011 588.029 172.676 587.022 172.253 586.05C171.541 584.193 170.467 581.675 169.243 578.925L166.072 571.901C165.686 570.903 165.23 569.934 164.707 569V569Z" fill="#263238"/>
<path d="M172.725 590.054C174.891 588.898 177.146 587.918 179.469 587.124C181.845 586.503 184.268 586.077 186.714 585.849C185.996 585.692 185.257 585.652 184.526 585.729C182.76 585.813 181.011 586.113 179.318 586.622C177.623 587.129 175.998 587.847 174.481 588.759C173.831 589.094 173.238 589.531 172.725 590.054V590.054Z" fill="#263238"/>
<path d="M108.643 659.204C108.552 659.315 116.46 666.229 126.314 674.668C136.168 683.107 144.226 689.841 144.317 689.72C144.407 689.6 136.499 682.696 126.645 674.267C116.791 665.837 108.733 659.094 108.643 659.204Z" fill="white"/>
<path d="M98.4675 659.204C98.3672 659.315 105.03 665.225 113.349 672.34C121.668 679.455 128.472 685.195 128.572 685.084C128.672 684.974 121.999 679.063 113.69 671.948C105.382 664.834 98.5578 659.094 98.4675 659.204Z" fill="white"/>
<path d="M83.4844 673.303C83.4844 673.303 83.4844 673.092 83.5447 672.671C83.6049 672.249 83.6049 671.607 83.6651 670.794C83.6651 670.383 83.6651 669.921 83.7454 669.419C83.8256 668.918 83.9059 668.366 83.9962 667.764C84.0865 667.162 84.1869 666.529 84.2973 665.847C84.4077 665.165 84.6385 664.462 84.8091 663.699C85.735 660.011 87.2099 656.483 89.1842 653.233C91.7682 648.915 95.1579 645.133 99.1689 642.094L100.865 640.83C101.467 640.439 102.089 640.087 102.711 639.706C103.333 639.325 103.946 638.903 104.628 638.592L106.635 637.589L107.638 637.097L108.732 636.706L110.94 635.903C111.692 635.652 112.475 635.491 113.248 635.281C114.029 635.053 114.823 634.872 115.626 634.739C117.263 634.435 118.92 634.244 120.583 634.167C121.426 634.167 122.279 634.056 123.142 634.067L125.731 634.207C126.173 634.207 126.614 634.207 127.046 634.287L128.35 634.488C129.223 634.639 130.116 634.739 130.99 634.919C132.764 635.316 134.511 635.829 136.218 636.455C137.969 637.087 139.676 637.838 141.325 638.703C142.158 639.154 142.951 639.706 143.774 640.158C144.175 640.419 144.597 640.639 144.978 640.92L146.132 641.793C149.359 644.094 152.181 646.915 154.481 650.142L155.384 651.347L156.177 652.641L156.96 653.936C157.237 654.361 157.482 654.807 157.692 655.27L159.017 658.03C159.378 659.033 159.729 659.966 160.081 660.94C162.777 668.961 162.777 677.644 160.081 685.666C159.719 686.669 159.368 687.603 159.017 688.566C158.666 689.529 158.124 690.412 157.682 691.335L157.351 692.018L156.95 692.67L156.167 693.965L155.374 695.259L154.471 696.463C153.296 698.047 152.019 699.552 150.648 700.969C149.247 702.323 147.763 703.586 146.202 704.752L145.048 705.615C144.657 705.906 144.236 706.117 143.834 706.378C143.011 706.859 142.219 707.381 141.396 707.833C139.744 708.7 138.034 709.451 136.278 710.081C134.571 710.707 132.824 711.22 131.05 711.616C130.177 711.797 129.284 711.897 128.411 712.047L127.106 712.248C126.664 712.308 126.233 712.298 125.791 712.328L123.202 712.469C122.339 712.469 121.486 712.399 120.644 712.369C118.98 712.292 117.324 712.101 115.686 711.797C114.883 711.668 114.088 711.487 113.308 711.255C112.535 711.044 111.743 710.883 111 710.643L108.792 709.83L107.699 709.438L106.695 708.947L104.688 707.943C104.006 707.632 103.404 707.191 102.771 706.829C102.139 706.468 101.527 706.097 100.925 705.705L99.2292 704.441C95.2157 701.405 91.8256 697.623 89.2445 693.302C87.2555 690.078 85.7605 686.574 84.8091 682.906C84.6385 682.144 84.3776 681.451 84.2973 680.759C84.217 680.066 84.0865 679.434 83.9962 678.842C83.9059 678.25 83.7955 677.698 83.7454 677.196C83.6952 676.695 83.6851 676.193 83.6651 675.812C83.6049 675.009 83.5647 674.387 83.5447 673.945C83.5447 673.524 83.4844 673.303 83.4844 673.303C83.4844 673.303 83.4844 673.524 83.4844 673.945C83.4844 674.367 83.4845 675.009 83.5547 675.822C83.5547 676.236 83.5748 676.698 83.6149 677.206C83.6149 677.708 83.7554 678.26 83.8357 678.862L84.1167 680.789C84.2475 681.519 84.415 682.243 84.6184 682.956C85.5035 686.68 86.959 690.244 88.9334 693.523C91.5189 697.895 94.9266 701.726 98.9682 704.802L100.674 706.087C101.276 706.478 101.908 706.849 102.531 707.231C103.153 707.612 103.775 708.044 104.457 708.365L106.514 709.368L107.518 709.86L108.622 710.271L110.85 711.084C111.602 711.345 112.395 711.506 113.188 711.716C113.973 711.957 114.774 712.141 115.586 712.268C117.242 712.584 118.919 712.782 120.603 712.86C121.466 712.86 122.319 712.981 123.192 712.971L125.822 712.84C126.253 712.84 126.705 712.84 127.146 712.76L128.471 712.559C129.354 712.409 130.247 712.308 131.14 712.128C132.935 711.731 134.702 711.215 136.428 710.582C138.21 709.952 139.944 709.194 141.616 708.314C142.449 707.863 143.252 707.311 144.085 706.849C144.496 706.588 144.928 706.368 145.319 706.077L146.453 705.184C148.04 704.012 149.545 702.735 150.959 701.36C152.363 699.922 153.664 698.386 154.852 696.764L155.776 695.55L156.568 694.236L157.371 692.921L157.773 692.269L158.114 691.566L159.499 688.767L160.582 685.826C163.319 677.688 163.319 668.878 160.582 660.739L159.499 657.819C159.047 656.886 158.595 655.953 158.154 655.019C157.936 654.552 157.688 654.1 157.411 653.665L156.609 652.35L155.806 651.046L154.893 649.831C153.698 648.215 152.397 646.679 150.999 645.235C149.585 643.861 148.08 642.583 146.493 641.412L145.319 640.539C144.925 640.257 144.516 639.996 144.095 639.756C143.262 639.275 142.459 638.753 141.626 638.291C139.952 637.416 138.218 636.658 136.438 636.023C134.712 635.391 132.945 634.874 131.15 634.478C130.257 634.297 129.364 634.197 128.481 634.046L127.156 633.846C126.715 633.796 126.273 633.796 125.832 633.765L123.202 633.635C122.339 633.635 121.476 633.715 120.623 633.745C118.939 633.823 117.262 634.021 115.606 634.337C114.797 634.475 113.996 634.659 113.208 634.889C112.425 635.1 111.632 635.271 110.87 635.522L108.642 636.334L107.548 636.746L106.545 637.248L104.538 638.251C103.873 638.592 103.227 638.967 102.601 639.375C101.979 639.756 101.347 640.128 100.744 640.519L99.0385 641.803C94.9968 644.88 91.5892 648.71 89.0036 653.083C87.0293 656.361 85.5737 659.926 84.6886 663.649C84.518 664.412 84.2672 665.124 84.1869 665.817C84.1066 666.509 83.9962 667.151 83.9059 667.744C83.8156 668.336 83.7253 668.898 83.6851 669.399C83.645 669.901 83.6851 670.403 83.6249 670.784C83.6249 671.597 83.6249 672.219 83.5547 672.661C83.4845 673.102 83.4844 673.303 83.4844 673.303Z" fill="#263238"/>
<path d="M98.0449 694.246C97.7378 693.778 97.4026 693.329 97.0414 692.901C96.1293 691.699 95.2915 690.442 94.5327 689.138C91.9939 684.85 90.4107 680.064 89.8911 675.107C89.3716 670.15 89.9279 665.14 91.5223 660.418C92.0033 658.987 92.5627 657.583 93.1981 656.214C93.4667 655.727 93.6982 655.22 93.8905 654.698C93.8905 654.698 93.7901 654.809 93.6396 655.05C93.4891 655.291 93.2683 655.642 93.0175 656.123C92.3021 657.467 91.6883 658.863 91.1811 660.298C89.4615 665.051 88.839 670.131 89.3603 675.158C89.8817 680.186 91.5333 685.03 94.1915 689.329C94.9913 690.626 95.8834 691.863 96.8608 693.032C97.202 693.443 97.503 693.744 97.6937 693.955C97.8844 694.166 98.0249 694.256 98.0449 694.246Z" fill="#263238"/>
<path d="M100.122 697.848C100.051 697.979 100.363 698.29 100.814 698.551C101.266 698.811 101.697 698.912 101.767 698.791C101.838 698.671 101.527 698.35 101.075 698.089C100.623 697.828 100.192 697.728 100.122 697.848Z" fill="#263238"/>
<path d="M151.863 690.192C151.964 690.046 152.045 689.887 152.104 689.72C152.245 689.409 152.465 688.948 152.696 688.325C153.364 686.583 153.898 684.791 154.292 682.967C155.613 676.911 155.458 670.627 153.841 664.643C152.223 658.66 149.191 653.153 144.999 648.587C143.747 647.202 142.384 645.92 140.925 644.754C140.424 644.333 139.992 644.052 139.711 643.841C139.43 643.63 139.28 643.54 139.259 643.56C139.239 643.58 139.801 644.052 140.795 644.915C142.192 646.129 143.506 647.437 144.728 648.828C148.798 653.407 151.748 658.869 153.343 664.783C154.938 670.698 155.136 676.902 153.92 682.907C153.557 684.719 153.074 686.506 152.475 688.255C152.084 689.499 151.823 690.182 151.863 690.192Z" fill="white"/>
<path d="M128.571 641.011C130.085 641.481 131.685 641.615 133.257 641.402C132.528 641.078 131.736 640.921 130.939 640.941C130.154 640.792 129.345 640.816 128.571 641.011V641.011Z" fill="white"/>
</svg>
