<svg width="23" height="19" viewBox="0 0 23 19" fill="none" xmlns="http://www.w3.org/2000/svg">
<path d="M1.78711 2.25999L3.06711 0.98999L19.7871 17.71L18.5171 18.99L15.4371 15.91C14.2871 16.29 13.0671 16.49 11.7871 16.49C6.78711 16.49 2.51711 13.38 0.787109 8.98999C1.47711 7.22999 2.57711 5.67999 3.97711 4.44999L1.78711 2.25999ZM11.7871 5.98999C12.5828 5.98999 13.3458 6.30606 13.9084 6.86867C14.471 7.43128 14.7871 8.19434 14.7871 8.98999C14.7871 9.33999 14.7271 9.67999 14.6171 9.98999L10.7871 6.15999C11.0971 6.04999 11.4371 5.98999 11.7871 5.98999ZM11.7871 1.48999C16.7871 1.48999 21.0571 4.59999 22.7871 8.98999C21.9671 11.07 20.5771 12.87 18.7871 14.18L17.3671 12.75C18.7271 11.81 19.8471 10.53 20.6071 8.98999C18.9571 5.62999 15.5471 3.48999 11.7871 3.48999C10.6971 3.48999 9.62711 3.66999 8.62711 3.98999L7.08711 2.45999C8.52711 1.83999 10.1171 1.48999 11.7871 1.48999ZM2.96711 8.98999C4.61711 12.35 8.02711 14.49 11.7871 14.49C12.4771 14.49 13.1571 14.42 13.7871 14.28L11.5071 11.99C10.0771 11.84 8.93711 10.7 8.78711 9.26999L5.38711 5.85999C4.39711 6.70999 3.56711 7.76999 2.96711 8.98999Z" fill="black"/>
</svg>
