<svg width="134" height="24" viewBox="0 0 134 24" fill="none" xmlns="http://www.w3.org/2000/svg">
<rect width="134" height="24" fill="#424242"/>
<g id="&#208;&#147;&#208;&#187;&#208;&#176;&#208;&#178;&#208;&#189;&#208;&#176;&#209;&#143; &#209;&#129;&#209;&#130;&#209;&#128;&#208;&#176;&#208;&#189;&#208;&#184;&#209;&#134;&#208;&#176;">
<g id="&#208;&#147;&#208;&#187;&#208;&#176;&#208;&#178;&#208;&#189;&#208;&#176;&#209;&#143; &#209;&#129;&#209;&#130;&#209;&#128;&#208;&#176;&#208;&#189;&#208;&#184;&#209;&#134;&#208;&#176;. &#208;&#148;&#208;&#181;&#209;&#129;&#208;&#186;&#209;&#130;&#208;&#190;&#208;&#191;" clip-path="url(#clip0_0_1)">
<rect width="1440" height="2867" transform="translate(-331 -2216)" fill="white"/>
<g id="Group 1171274225">
<g id="Group 1171274222">
<g id="Rectangle 17" filter="url(#filter0_d_0_1)">
<rect x="-271" y="-144" width="415" height="540" rx="10" fill="white"/>
<rect x="-270" y="-143" width="413" height="538" rx="9" stroke="#FFB64F" stroke-width="2"/>
</g>
<path id="Rectangle 21" d="M0 10C0 4.47715 4.47715 0 10 0H124C129.523 0 134 4.47715 134 10V14C134 19.5228 129.523 24 124 24H10C4.47715 24 0 19.5228 0 14V10Z" fill="#3BA5E0"/>
<path id="&#208;&#162;&#208;&#181;&#208;&#186;&#209;&#131;&#209;&#137;&#208;&#184;&#208;&#185; &#209;&#130;&#208;&#176;&#209;&#128;&#208;&#184;&#209;&#132;" d="M13.6761 7.91193V6.81818H21.3125V7.91193H18.1108V17H16.8778V7.91193H13.6761ZM25.2906 17.1591C24.5548 17.1591 23.9201 16.9967 23.3864 16.6719C22.8561 16.3438 22.4468 15.8864 22.1585 15.2997C21.8734 14.7098 21.7309 14.0237 21.7309 13.2415C21.7309 12.4593 21.8734 11.7699 22.1585 11.1733C22.4468 10.5734 22.8479 10.1061 23.3616 9.77131C23.8786 9.43324 24.4819 9.2642 25.1713 9.2642C25.569 9.2642 25.9617 9.33049 26.3495 9.46307C26.7373 9.59564 27.0903 9.81108 27.4085 10.1094C27.7266 10.4044 27.9802 10.7955 28.1691 11.2827C28.358 11.7699 28.4525 12.3698 28.4525 13.0824V13.5795H22.5661V12.5653H27.2593C27.2593 12.1345 27.1731 11.75 27.0008 11.4119C26.8318 11.0739 26.5898 10.8071 26.2749 10.6115C25.9634 10.416 25.5955 10.3182 25.1713 10.3182C24.7039 10.3182 24.2996 10.4342 23.9582 10.6662C23.6201 10.8949 23.3599 11.1932 23.1776 11.5611C22.9954 11.929 22.9042 12.3234 22.9042 12.7443V13.4205C22.9042 13.9972 23.0036 14.486 23.2025 14.8871C23.4047 15.2848 23.6847 15.5881 24.0427 15.7969C24.4007 16.0024 24.8166 16.1051 25.2906 16.1051C25.5988 16.1051 25.8772 16.062 26.1258 15.9759C26.3777 15.8864 26.5948 15.7538 26.7771 15.5781C26.9594 15.3991 27.1002 15.1771 27.1997 14.9119L28.3332 15.2301C28.2139 15.6146 28.0133 15.9527 27.7316 16.2443C27.4499 16.5327 27.1019 16.758 26.6876 16.9205C26.2733 17.0795 25.8076 17.1591 25.2906 17.1591ZM30.3773 17V9.36364H31.5506V12.6847H32.3262L35.0705 9.36364H36.5818L33.4995 13.0426L36.6216 17H35.1103L32.6046 13.7784H31.5506V17H30.3773ZM38.7925 19.8636C38.5937 19.8636 38.4163 19.8471 38.2606 19.8139C38.1048 19.7841 37.9971 19.7543 37.9374 19.7244L38.2357 18.6903C38.5207 18.7633 38.7726 18.7898 38.9914 18.7699C39.2101 18.75 39.404 18.6522 39.5731 18.4766C39.7454 18.3042 39.9028 18.0241 40.0454 17.6364L40.2641 17.0398L37.4402 9.36364H38.713L40.8209 15.4489H40.9005L43.0084 9.36364H44.2812L41.0397 18.1136C40.8938 18.508 40.7132 18.8345 40.4978 19.093C40.2823 19.3549 40.0321 19.5488 39.7471 19.6747C39.4653 19.8007 39.1472 19.8636 38.7925 19.8636ZM56.3903 15.9062L56.2511 19.1875H55.038V17H54.0437V15.9062H56.3903ZM45.9698 9.36364H47.1431V15.9062H50.0266V9.36364H51.1999V15.9062H54.0834V9.36364H55.2567V17H45.9698V9.36364ZM59.4101 15.2699L63.089 9.36364H64.4413V17H63.268V11.0938L59.6089 17H58.2368V9.36364H59.4101V15.2699ZM67.9036 15.2699L71.5825 9.36364H72.9348V17H71.7615V11.0938L68.1024 17H66.7303V9.36364H67.9036V15.2699ZM70.807 6.81818H71.9007C71.9007 7.35511 71.7151 7.79427 71.3439 8.13565C70.9727 8.47704 70.4689 8.64773 69.8325 8.64773C69.2061 8.64773 68.7073 8.47704 68.3361 8.13565C67.9682 7.79427 67.7842 7.35511 67.7842 6.81818H68.878C68.878 7.0767 68.9493 7.30374 69.0918 7.49929C69.2376 7.69484 69.4845 7.79261 69.8325 7.79261C70.1806 7.79261 70.4291 7.69484 70.5783 7.49929C70.7307 7.30374 70.807 7.0767 70.807 6.81818ZM78.8638 10.4574V9.36364H85.0683V10.4574H82.5627V17H81.3894V10.4574H78.8638ZM88.7705 17.179C88.2866 17.179 87.8474 17.0878 87.453 16.9055C87.0586 16.7199 86.7454 16.4531 86.5134 16.1051C86.2814 15.7538 86.1654 15.3295 86.1654 14.8324C86.1654 14.3949 86.2515 14.0402 86.4239 13.7685C86.5962 13.4934 86.8266 13.2779 87.1149 13.1222C87.4033 12.9664 87.7215 12.8504 88.0695 12.7741C88.4208 12.6946 88.7738 12.6316 89.1284 12.5852C89.5924 12.5256 89.9686 12.4808 90.257 12.451C90.5487 12.4179 90.7608 12.3632 90.8933 12.2869C91.0292 12.2107 91.0972 12.0781 91.0972 11.8892V11.8494C91.0972 11.3589 90.9629 10.9777 90.6945 10.706C90.4293 10.4342 90.0266 10.2983 89.4864 10.2983C88.9263 10.2983 88.4871 10.4209 88.1689 10.6662C87.8507 10.9115 87.627 11.1733 87.4978 11.4517L86.3841 11.054C86.583 10.59 86.8481 10.2287 87.1796 9.97017C87.5143 9.70833 87.8789 9.52604 88.2733 9.4233C88.671 9.31723 89.0621 9.2642 89.4466 9.2642C89.6919 9.2642 89.9736 9.29403 90.2918 9.35369C90.6133 9.41004 90.9232 9.5277 91.2215 9.70668C91.5231 9.88565 91.7733 10.1558 91.9722 10.517C92.171 10.8783 92.2705 11.3622 92.2705 11.9688V17H91.0972V15.9659H91.0375C90.958 16.1316 90.8254 16.3089 90.6398 16.4979C90.4542 16.6868 90.2073 16.8475 89.899 16.9801C89.5908 17.1127 89.2146 17.179 88.7705 17.179ZM88.9495 16.125C89.4135 16.125 89.8046 16.0339 90.1228 15.8516C90.4442 15.6693 90.6862 15.4339 90.8486 15.1456C91.0143 14.8572 91.0972 14.554 91.0972 14.2358V13.1619C91.0475 13.2216 90.9381 13.2763 90.7691 13.326C90.6033 13.3724 90.4111 13.4138 90.1924 13.4503C89.9769 13.4834 89.7665 13.5133 89.561 13.5398C89.3588 13.563 89.1947 13.5829 89.0688 13.5994C88.7638 13.6392 88.4788 13.7038 88.2137 13.7933C87.9518 13.8795 87.7397 14.0104 87.5773 14.1861C87.4182 14.3584 87.3387 14.5937 87.3387 14.892C87.3387 15.2997 87.4895 15.608 87.7911 15.8168C88.096 16.0223 88.4821 16.125 88.9495 16.125ZM94.552 19.8636V9.36364H95.6855V10.5767H95.8247C95.9109 10.4441 96.0302 10.2751 96.1827 10.0696C96.3384 9.8608 96.5605 9.67519 96.8489 9.51278C97.1405 9.34706 97.5349 9.2642 98.0321 9.2642C98.6751 9.2642 99.2419 9.42495 99.7324 9.74645C100.223 10.0679 100.606 10.5237 100.881 11.1136C101.156 11.7036 101.293 12.3996 101.293 13.2017C101.293 14.0104 101.156 14.7114 100.881 15.3047C100.606 15.8946 100.225 16.352 99.7374 16.6768C99.2501 16.9983 98.6884 17.1591 98.052 17.1591C97.5615 17.1591 97.1687 17.0779 96.8737 16.9155C96.5787 16.7498 96.3517 16.5625 96.1926 16.3537C96.0335 16.1416 95.9109 15.9659 95.8247 15.8267H95.7253V19.8636H94.552ZM95.7054 13.1818C95.7054 13.7585 95.7899 14.2673 95.959 14.7081C96.128 15.1456 96.3749 15.4886 96.6997 15.7372C97.0245 15.9825 97.4223 16.1051 97.8929 16.1051C98.3834 16.1051 98.7928 15.9759 99.1209 15.7173C99.4523 15.4555 99.7009 15.1042 99.8666 14.6634C100.036 14.2192 100.12 13.7254 100.12 13.1818C100.12 12.6449 100.037 12.161 99.8716 11.7301C99.7092 11.2959 99.4623 10.9529 99.1308 10.701C98.8027 10.4458 98.3901 10.3182 97.8929 10.3182C97.4156 10.3182 97.0146 10.4392 96.6898 10.6811C96.365 10.9197 96.1197 11.2545 95.954 11.6854C95.7883 12.1129 95.7054 12.6117 95.7054 13.1818ZM104.397 15.2699L108.076 9.36364H109.428V17H108.254V11.0938L104.595 17H103.223V9.36364H104.397V15.2699ZM114.819 19.6051V6.81818H115.992V19.6051H114.819ZM114.819 17.1591C114.302 17.1591 113.831 17.0663 113.407 16.8807C112.983 16.6918 112.618 16.425 112.313 16.0803C112.008 15.7322 111.773 15.3163 111.607 14.8324C111.442 14.3485 111.359 13.8116 111.359 13.2216C111.359 12.625 111.442 12.0848 111.607 11.6009C111.773 11.1136 112.008 10.696 112.313 10.348C112.618 10 112.983 9.73319 113.407 9.54758C113.831 9.35866 114.302 9.2642 114.819 9.2642H115.177V17.1591H114.819ZM114.819 16.1051H115.018V10.3182H114.819C114.428 10.3182 114.088 10.3977 113.8 10.5568C113.511 10.7126 113.273 10.9264 113.084 11.1982C112.898 11.4666 112.759 11.7749 112.666 12.1229C112.577 12.4709 112.532 12.8371 112.532 13.2216C112.532 13.732 112.613 14.206 112.776 14.6435C112.938 15.081 113.188 15.4339 113.526 15.7024C113.864 15.9709 114.295 16.1051 114.819 16.1051ZM115.992 17.1591H115.634V9.2642H115.992C116.509 9.2642 116.98 9.35866 117.404 9.54758C117.828 9.73319 118.193 10 118.498 10.348C118.803 10.696 119.038 11.1136 119.204 11.6009C119.37 12.0848 119.453 12.625 119.453 13.2216C119.453 13.8116 119.37 14.3485 119.204 14.8324C119.038 15.3163 118.803 15.7322 118.498 16.0803C118.193 16.425 117.828 16.6918 117.404 16.8807C116.98 17.0663 116.509 17.1591 115.992 17.1591ZM115.992 16.1051C116.387 16.1051 116.726 16.0289 117.011 15.8764C117.3 15.7206 117.537 15.5085 117.722 15.2401C117.911 14.9683 118.051 14.66 118.14 14.3153C118.233 13.9673 118.279 13.6027 118.279 13.2216C118.279 12.7112 118.198 12.2356 118.036 11.7947C117.873 11.3539 117.623 10.9976 117.285 10.7259C116.947 10.4541 116.516 10.3182 115.992 10.3182H115.793V16.1051H115.992Z" fill="white"/>
</g>
<g id="Group 1171274223">
</g>
</g>
</g>
</g>
<defs>
<filter id="filter0_d_0_1" x="-291" y="-164" width="455" height="580" filterUnits="userSpaceOnUse" color-interpolation-filters="sRGB">
<feFlood flood-opacity="0" result="BackgroundImageFix"/>
<feColorMatrix in="SourceAlpha" type="matrix" values="0 0 0 0 0 0 0 0 0 0 0 0 0 0 0 0 0 0 127 0" result="hardAlpha"/>
<feOffset/>
<feGaussianBlur stdDeviation="10"/>
<feComposite in2="hardAlpha" operator="out"/>
<feColorMatrix type="matrix" values="0 0 0 0 0 0 0 0 0 0 0 0 0 0 0 0 0 0 0.2 0"/>
<feBlend mode="normal" in2="BackgroundImageFix" result="effect1_dropShadow_0_1"/>
<feBlend mode="normal" in="SourceGraphic" in2="effect1_dropShadow_0_1" result="shape"/>
</filter>
<clipPath id="clip0_0_1">
<rect width="1440" height="2867" fill="white" transform="translate(-331 -2216)"/>
</clipPath>
</defs>
</svg>
